<svg xmlns="http://www.w3.org/2000/svg" xmlns:xlink="http://www.w3.org/1999/xlink" width="793.701" height="621.436" class="typst-doc" viewBox="0 0 595.276 466.077"><path fill="#fff" d="M0 0v466.077h595.276V0Z" class="typst-shape"/><g class="typst-text" transform="matrix(1 0 0 -1 269.638 82.262)"><use xlink:href="#a"/><use xlink:href="#b" x="14"/><use xlink:href="#c" x="28"/><use xlink:href="#d" x="42"/></g><g class="typst-group"><path fill="#0000000c" d="M90.709 116.062a1.6 1.6 0 0 1 1.6-1.6h410.658a1.6 1.6 0 0 1 1.6 1.6v93.8a1.6 1.6 0 0 1-1.6 1.6H92.309a1.6 1.6 0 0 1-1.6-1.6Z" class="typst-shape"/><g class="typst-group"><path fill="url(#e)" d="M0 0v17.4h17.4V0Z" class="typst-shape" transform="translate(116.767 119.462)"/><path fill="url(#e)" d="M0 0v17.4h17.4V0Z" class="typst-shape" transform="translate(116.767 136.862)"/><path fill="url(#e)" d="M0 0v17.4h17.4V0Z" class="typst-shape" transform="translate(116.767 154.262)"/><path fill="url(#e)" d="M0 0v17.4h17.4V0Z" class="typst-shape" transform="translate(116.767 171.662)"/><path fill="url(#e)" d="M0 0v17.4h17.4V0Z" class="typst-shape" transform="translate(116.767 189.062)"/><path fill="url(#e)" d="M0 0v17.4h17.4V0Z" class="typst-shape" transform="translate(134.167 119.462)"/><path fill="url(#e)" d="M0 0v17.4h17.4V0Z" class="typst-shape" transform="translate(134.167 136.862)"/><path fill="url(#e)" d="M0 0v17.4h17.4V0Z" class="typst-shape" transform="translate(134.167 154.262)"/><path fill="url(#e)" d="M0 0v17.4h17.4V0Z" class="typst-shape" transform="translate(134.167 171.662)"/><path fill="url(#e)" d="M0 0v17.4h17.4V0Z" class="typst-shape" transform="translate(134.167 189.062)"/><path fill="url(#e)" d="M0 0v17.4h17.4V0Z" class="typst-shape" transform="translate(151.567 119.462)"/><path fill="url(#e)" d="M0 0v17.4h17.4V0Z" class="typst-shape" transform="translate(151.567 136.862)"/><path fill="url(#e)" d="M0 0v17.4h17.4V0Z" class="typst-shape" transform="translate(151.567 154.262)"/><path fill="url(#e)" d="M0 0v17.4h17.4V0Z" class="typst-shape" transform="translate(151.567 171.662)"/><path fill="url(#e)" d="M0 0v17.4h17.4V0Z" class="typst-shape" transform="translate(151.567 189.062)"/><path fill="url(#e)" d="M0 0v17.4h17.4V0Z" class="typst-shape" transform="translate(168.967 119.462)"/><path fill="url(#e)" d="M0 0v17.4h17.4V0Z" class="typst-shape" transform="translate(168.967 136.862)"/><path fill="url(#e)" d="M0 0v17.4h17.4V0Z" class="typst-shape" transform="translate(168.967 154.262)"/><path fill="url(#e)" d="M0 0v17.4h17.4V0Z" class="typst-shape" transform="translate(168.967 171.662)"/><path fill="url(#e)" d="M0 0v17.4h17.4V0Z" class="typst-shape" transform="translate(168.967 189.062)"/><path fill="url(#e)" d="M0 0v17.4h17.4V0Z" class="typst-shape" transform="translate(186.367 119.462)"/><path fill="url(#e)" d="M0 0v17.4h17.4V0Z" class="typst-shape" transform="translate(186.367 136.862)"/><path fill="url(#e)" d="M0 0v17.4h17.4V0Z" class="typst-shape" transform="translate(186.367 154.262)"/><path fill="url(#e)" d="M0 0v17.4h17.4V0Z" class="typst-shape" transform="translate(186.367 171.662)"/><path fill="url(#e)" d="M0 0v17.4h17.4V0Z" class="typst-shape" transform="translate(186.367 189.062)"/><path fill="url(#e)" d="M0 0v17.4h17.4V0Z" class="typst-shape" transform="translate(203.767 119.462)"/><path fill="url(#e)" d="M0 0v17.4h17.4V0Z" class="typst-shape" transform="translate(203.767 136.862)"/><path fill="url(#e)" d="M0 0v17.4h17.4V0Z" class="typst-shape" transform="translate(203.767 154.262)"/><path fill="url(#e)" d="M0 0v17.4h17.4V0Z" class="typst-shape" transform="translate(203.767 171.662)"/><path fill="url(#e)" d="M0 0v17.4h17.4V0Z" class="typst-shape" transform="translate(203.767 189.062)"/><path fill="url(#e)" d="M0 0v17.4h17.4V0Z" class="typst-shape" transform="translate(221.167 119.462)"/><path fill="url(#e)" d="M0 0v17.4h17.4V0Z" class="typst-shape" transform="translate(221.167 136.862)"/><path fill="url(#e)" d="M0 0v17.4h17.4V0Z" class="typst-shape" transform="translate(221.167 154.262)"/><path fill="url(#e)" d="M0 0v17.4h17.4V0Z" class="typst-shape" transform="translate(221.167 171.662)"/><path fill="url(#e)" d="M0 0v17.4h17.4V0Z" class="typst-shape" transform="translate(221.167 189.062)"/><path fill="url(#e)" d="M0 0v17.4h17.4V0Z" class="typst-shape" transform="translate(238.567 119.462)"/><path fill="url(#e)" d="M0 0v17.4h17.4V0Z" class="typst-shape" transform="translate(238.567 136.862)"/><path fill="url(#e)" d="M0 0v17.4h17.4V0Z" class="typst-shape" transform="translate(238.567 154.262)"/><path fill="url(#e)" d="M0 0v17.4h17.4V0Z" class="typst-shape" transform="translate(238.567 171.662)"/><path fill="url(#e)" d="M0 0v17.4h17.4V0Z" class="typst-shape" transform="translate(238.567 189.062)"/><path fill="url(#e)" d="M0 0v17.4h17.4V0Z" class="typst-shape" transform="translate(255.967 119.462)"/><path fill="url(#e)" d="M0 0v17.4h17.4V0Z" class="typst-shape" transform="translate(255.967 136.862)"/><path fill="url(#e)" d="M0 0v17.4h17.4V0Z" class="typst-shape" transform="translate(255.967 154.262)"/><path fill="url(#f)" d="M0 0v17.4h17.4V0Z" class="typst-shape" transform="translate(255.967 171.662)"/><path fill="url(#e)" d="M0 0v17.4h17.4V0Z" class="typst-shape" transform="translate(255.967 189.062)"/><path fill="url(#e)" d="M0 0v17.4h17.4V0Z" class="typst-shape" transform="translate(273.367 119.462)"/><path fill="url(#e)" d="M0 0v17.4h17.4V0Z" class="typst-shape" transform="translate(273.367 136.862)"/><path fill="url(#e)" d="M0 0v17.4h17.4V0Z" class="typst-shape" transform="translate(273.367 154.262)"/><path fill="url(#e)" d="M0 0v17.4h17.4V0Z" class="typst-shape" transform="translate(273.367 171.662)"/><path fill="url(#e)" d="M0 0v17.4h17.4V0Z" class="typst-shape" transform="translate(273.367 189.062)"/><path fill="url(#e)" d="M0 0v17.4h17.4V0Z" class="typst-shape" transform="translate(290.767 119.462)"/><path fill="url(#e)" d="M0 0v17.4h17.4V0Z" class="typst-shape" transform="translate(290.767 136.862)"/><path fill="url(#e)" d="M0 0v17.4h17.4V0Z" class="typst-shape" transform="translate(290.767 154.262)"/><path fill="url(#e)" d="M0 0v17.4h17.4V0Z" class="typst-shape" transform="translate(290.767 171.662)"/><path fill="url(#e)" d="M0 0v17.4h17.4V0Z" class="typst-shape" transform="translate(290.767 189.062)"/><path fill="url(#e)" d="M0 0v17.4h17.4V0Z" class="typst-shape" transform="translate(308.167 119.462)"/><path fill="url(#e)" d="M0 0v17.4h17.4V0Z" class="typst-shape" transform="translate(308.167 136.862)"/><path fill="url(#e)" d="M0 0v17.4h17.4V0Z" class="typst-shape" transform="translate(308.167 154.262)"/><path fill="url(#e)" d="M0 0v17.4h17.4V0Z" class="typst-shape" transform="translate(308.167 171.662)"/><path fill="url(#e)" d="M0 0v17.4h17.4V0Z" class="typst-shape" transform="translate(308.167 189.062)"/><path fill="url(#e)" d="M0 0v17.4h17.4V0Z" class="typst-shape" transform="translate(325.567 119.462)"/><path fill="url(#e)" d="M0 0v17.4h17.4V0Z" class="typst-shape" transform="translate(325.567 136.862)"/><path fill="url(#e)" d="M0 0v17.4h17.4V0Z" class="typst-shape" transform="translate(325.567 154.262)"/><path fill="url(#e)" d="M0 0v17.4h17.4V0Z" class="typst-shape" transform="translate(325.567 171.662)"/><path fill="url(#e)" d="M0 0v17.4h17.4V0Z" class="typst-shape" transform="translate(325.567 189.062)"/><path fill="url(#e)" d="M0 0v17.4h17.4V0Z" class="typst-shape" transform="translate(342.967 119.462)"/><path fill="url(#e)" d="M0 0v17.4h17.4V0Z" class="typst-shape" transform="translate(342.967 136.862)"/><path fill="url(#e)" d="M0 0v17.4h17.4V0Z" class="typst-shape" transform="translate(342.967 154.262)"/><path fill="url(#e)" d="M0 0v17.4h17.4V0Z" class="typst-shape" transform="translate(342.967 171.662)"/><path fill="url(#e)" d="M0 0v17.4h17.4V0Z" class="typst-shape" transform="translate(342.967 189.062)"/><path fill="url(#e)" d="M0 0v17.4h17.4V0Z" class="typst-shape" transform="translate(360.367 119.462)"/><path fill="url(#e)" d="M0 0v17.4h17.4V0Z" class="typst-shape" transform="translate(360.367 136.862)"/><path fill="url(#e)" d="M0 0v17.4h17.4V0Z" class="typst-shape" transform="translate(360.367 154.262)"/><path fill="url(#e)" d="M0 0v17.4h17.4V0Z" class="typst-shape" transform="translate(360.367 171.662)"/><path fill="url(#e)" d="M0 0v17.4h17.4V0Z" class="typst-shape" transform="translate(360.367 189.062)"/><path fill="url(#e)" d="M0 0v17.4h17.4V0Z" class="typst-shape" transform="translate(377.767 119.462)"/><path fill="url(#e)" d="M0 0v17.4h17.4V0Z" class="typst-shape" transform="translate(377.767 136.862)"/><path fill="url(#e)" d="M0 0v17.4h17.4V0Z" class="typst-shape" transform="translate(377.767 154.262)"/><path fill="url(#e)" d="M0 0v17.4h17.4V0Z" class="typst-shape" transform="translate(377.767 171.662)"/><path fill="url(#e)" d="M0 0v17.4h17.4V0Z" class="typst-shape" transform="translate(377.767 189.062)"/><path fill="url(#e)" d="M0 0v17.4h17.4V0Z" class="typst-shape" transform="translate(395.167 119.462)"/><path fill="url(#e)" d="M0 0v17.4h17.4V0Z" class="typst-shape" transform="translate(395.167 136.862)"/><path fill="url(#e)" d="M0 0v17.4h17.4V0Z" class="typst-shape" transform="translate(395.167 154.262)"/><path fill="url(#e)" d="M0 0v17.4h17.4V0Z" class="typst-shape" transform="translate(395.167 171.662)"/><path fill="url(#e)" d="M0 0v17.4h17.4V0Z" class="typst-shape" transform="translate(395.167 189.062)"/><path fill="url(#e)" d="M0 0v17.4h17.4V0Z" class="typst-shape" transform="translate(412.567 119.462)"/><path fill="url(#e)" d="M0 0v17.4h17.4V0Z" class="typst-shape" transform="translate(412.567 136.862)"/><path fill="url(#e)" d="M0 0v17.4h17.4V0Z" class="typst-shape" transform="translate(412.567 154.262)"/><path fill="url(#e)" d="M0 0v17.4h17.4V0Z" class="typst-shape" transform="translate(412.567 171.662)"/><path fill="url(#e)" d="M0 0v17.4h17.4V0Z" class="typst-shape" transform="translate(412.567 189.062)"/><path fill="url(#e)" d="M0 0v17.4h17.4V0Z" class="typst-shape" transform="translate(429.967 119.462)"/><path fill="url(#e)" d="M0 0v17.4h17.4V0Z" class="typst-shape" transform="translate(429.967 136.862)"/><path fill="url(#e)" d="M0 0v17.4h17.4V0Z" class="typst-shape" transform="translate(429.967 154.262)"/><path fill="url(#e)" d="M0 0v17.4h17.4V0Z" class="typst-shape" transform="translate(429.967 171.662)"/><path fill="url(#e)" d="M0 0v17.4h17.4V0Z" class="typst-shape" transform="translate(429.967 189.062)"/><path fill="url(#e)" d="M0 0v17.4h17.4V0Z" class="typst-shape" transform="translate(447.367 119.462)"/><path fill="url(#e)" d="M0 0v17.4h17.4V0Z" class="typst-shape" transform="translate(447.367 136.862)"/><path fill="url(#e)" d="M0 0v17.4h17.4V0Z" class="typst-shape" transform="translate(447.367 154.262)"/><path fill="url(#e)" d="M0 0v17.4h17.4V0Z" class="typst-shape" transform="translate(447.367 171.662)"/><path fill="url(#e)" d="M0 0v17.4h17.4V0Z" class="typst-shape" transform="translate(447.367 189.062)"/><path fill="url(#e)" d="M0 0v17.4h17.4V0Z" class="typst-shape" transform="translate(464.767 119.462)"/><path fill="url(#e)" d="M0 0v17.4h17.4V0Z" class="typst-shape" transform="translate(464.767 136.862)"/><path fill="url(#e)" d="M0 0v17.4h17.4V0Z" class="typst-shape" transform="translate(464.767 154.262)"/><path fill="url(#e)" d="M0 0v17.4h17.4V0Z" class="typst-shape" transform="translate(464.767 171.662)"/><path fill="url(#e)" d="M0 0v17.4h17.4V0Z" class="typst-shape" transform="translate(464.767 189.062)"/><path fill="url(#e)" d="M0 0v17.4h17.4V0Z" class="typst-shape" transform="translate(482.167 119.462)"/><path fill="url(#e)" d="M0 0v17.4h17.4V0Z" class="typst-shape" transform="translate(482.167 136.862)"/><path fill="url(#e)" d="M0 0v17.4h17.4V0Z" class="typst-shape" transform="translate(482.167 154.262)"/><path fill="url(#e)" d="M0 0v17.4h17.4V0Z" class="typst-shape" transform="translate(482.167 171.662)"/><path fill="url(#e)" d="M0 0v17.4h17.4V0Z" class="typst-shape" transform="translate(482.167 189.062)"/><g class="typst-group"><use xlink:href="#g" fill="#00000000" class="typst-text" transform="matrix(1 0 0 -1 113.797 130.781)"/></g><g class="typst-group"><use xlink:href="#g" fill="#00000000" class="typst-text" transform="matrix(1 0 0 -1 131.197 130.781)"/><use xlink:href="#h" class="typst-text" transform="matrix(1 0 0 -1 137.367 132.193)"/></g><g class="typst-group"><use xlink:href="#g" fill="#00000000" class="typst-text" transform="matrix(1 0 0 -1 148.597 130.781)"/><use xlink:href="#i" class="typst-text" transform="matrix(1 0 0 -1 154.767 132.193)"/></g><g class="typst-group"><use xlink:href="#g" fill="#00000000" class="typst-text" transform="matrix(1 0 0 -1 165.997 130.781)"/><use xlink:href="#h" class="typst-text" transform="matrix(1 0 0 -1 172.167 132.193)"/></g><g class="typst-group"><use xlink:href="#g" fill="#00000000" class="typst-text" transform="matrix(1 0 0 -1 183.397 130.781)"/><use xlink:href="#j" class="typst-text" transform="matrix(1 0 0 -1 189.567 132.171)"/></g><g class="typst-group"><use xlink:href="#g" fill="#00000000" class="typst-text" transform="matrix(1 0 0 -1 200.797 130.781)"/><use xlink:href="#k" class="typst-text" transform="matrix(1 0 0 -1 206.967 132.193)"/></g><g class="typst-group"><use xlink:href="#g" fill="#00000000" class="typst-text" transform="matrix(1 0 0 -1 218.197 130.781)"/></g><g class="typst-group"><use xlink:href="#g" fill="#00000000" class="typst-text" transform="matrix(1 0 0 -1 235.597 130.781)"/><use xlink:href="#i" class="typst-text" transform="matrix(1 0 0 -1 241.767 132.193)"/></g><g class="typst-group"><use xlink:href="#g" fill="#00000000" class="typst-text" transform="matrix(1 0 0 -1 252.997 130.781)"/></g><g class="typst-group"><use xlink:href="#g" fill="#00000000" class="typst-text" transform="matrix(1 0 0 -1 270.397 130.781)"/><use xlink:href="#h" class="typst-text" transform="matrix(1 0 0 -1 276.567 132.193)"/></g><g class="typst-group"><use xlink:href="#g" fill="#00000000" class="typst-text" transform="matrix(1 0 0 -1 287.797 130.781)"/><use xlink:href="#h" class="typst-text" transform="matrix(1 0 0 -1 293.967 132.193)"/></g><g class="typst-group"><use xlink:href="#g" fill="#00000000" class="typst-text" transform="matrix(1 0 0 -1 305.197 130.781)"/><use xlink:href="#l" class="typst-text" transform="matrix(1 0 0 -1 311.367 132.193)"/></g><g class="typst-group"><use xlink:href="#g" fill="#00000000" class="typst-text" transform="matrix(1 0 0 -1 322.597 130.781)"/><use xlink:href="#k" class="typst-text" transform="matrix(1 0 0 -1 328.767 132.193)"/></g><g class="typst-group"><use xlink:href="#g" fill="#00000000" class="typst-text" transform="matrix(1 0 0 -1 339.997 130.781)"/></g><g class="typst-group"><use xlink:href="#g" fill="#00000000" class="typst-text" transform="matrix(1 0 0 -1 357.397 130.781)"/></g><g class="typst-group"><use xlink:href="#g" fill="#00000000" class="typst-text" transform="matrix(1 0 0 -1 374.797 130.781)"/></g><g class="typst-group"><use xlink:href="#g" fill="#00000000" class="typst-text" transform="matrix(1 0 0 -1 392.197 130.781)"/></g><g class="typst-group"><use xlink:href="#g" fill="#00000000" class="typst-text" transform="matrix(1 0 0 -1 409.597 130.781)"/></g><g class="typst-group"><use xlink:href="#g" fill="#00000000" class="typst-text" transform="matrix(1 0 0 -1 426.997 130.781)"/></g><g class="typst-group"><use xlink:href="#g" fill="#00000000" class="typst-text" transform="matrix(1 0 0 -1 444.397 130.781)"/></g><g class="typst-group"><use xlink:href="#g" fill="#00000000" class="typst-text" transform="matrix(1 0 0 -1 461.797 130.781)"/></g><g class="typst-group"><use xlink:href="#g" fill="#00000000" class="typst-text" transform="matrix(1 0 0 -1 479.197 130.781)"/><use xlink:href="#m" class="typst-text" transform="matrix(1 0 0 -1 485.367 132.193)"/></g><g class="typst-group"><g class="typst-text" transform="matrix(1 0 0 -1 98.538 148.369)"><use xlink:href="#n"/><use xlink:href="#o" x="7.7"/></g><g class="typst-group"><use xlink:href="#g" fill="#00000000" class="typst-text" transform="matrix(1 0 0 -1 113.797 148.181)"/></g><g class="typst-group"><use xlink:href="#g" fill="#00000000" class="typst-text" transform="matrix(1 0 0 -1 131.197 148.181)"/><use xlink:href="#p" class="typst-text" transform="matrix(1 0 0 -1 137.367 149.571)"/></g><g class="typst-group"><use xlink:href="#g" fill="#00000000" class="typst-text" transform="matrix(1 0 0 -1 148.597 148.181)"/><use xlink:href="#q" class="typst-text" transform="matrix(1 0 0 -1 154.767 149.571)"/></g><g class="typst-group"><use xlink:href="#g" fill="#00000000" class="typst-text" transform="matrix(1 0 0 -1 165.997 148.181)"/><use xlink:href="#p" class="typst-text" transform="matrix(1 0 0 -1 172.167 149.571)"/></g><g class="typst-group"><use xlink:href="#g" fill="#00000000" class="typst-text" transform="matrix(1 0 0 -1 183.397 148.181)"/><use xlink:href="#r" class="typst-text" transform="matrix(1 0 0 -1 189.567 149.571)"/></g><g class="typst-group"><use xlink:href="#g" fill="#00000000" class="typst-text" transform="matrix(1 0 0 -1 200.797 148.181)"/></g><g class="typst-group"><use xlink:href="#g" fill="#00000000" class="typst-text" transform="matrix(1 0 0 -1 218.197 148.181)"/></g><g class="typst-group"><use xlink:href="#g" fill="#00000000" class="typst-text" transform="matrix(1 0 0 -1 235.597 148.181)"/><use xlink:href="#q" class="typst-text" transform="matrix(1 0 0 -1 241.767 149.571)"/></g><g class="typst-group"><use xlink:href="#g" fill="#00000000" class="typst-text" transform="matrix(1 0 0 -1 252.997 148.181)"/></g><g class="typst-group"><use xlink:href="#g" fill="#00000000" class="typst-text" transform="matrix(1 0 0 -1 270.397 148.181)"/><use xlink:href="#p" class="typst-text" transform="matrix(1 0 0 -1 276.567 149.571)"/></g><g class="typst-group"><use xlink:href="#g" fill="#00000000" class="typst-text" transform="matrix(1 0 0 -1 287.797 148.181)"/><use xlink:href="#p" class="typst-text" transform="matrix(1 0 0 -1 293.967 149.571)"/></g><g class="typst-group"><use xlink:href="#g" fill="#00000000" class="typst-text" transform="matrix(1 0 0 -1 305.197 148.181)"/><use xlink:href="#s" class="typst-text" transform="matrix(1 0 0 -1 311.367 149.571)"/></g><g class="typst-group"><use xlink:href="#g" fill="#00000000" class="typst-text" transform="matrix(1 0 0 -1 322.597 148.181)"/></g><g class="typst-group"><use xlink:href="#g" fill="#00000000" class="typst-text" transform="matrix(1 0 0 -1 339.997 148.181)"/><use xlink:href="#t" class="typst-text" transform="matrix(1 0 0 -1 346.167 149.593)"/></g><g class="typst-group"><use xlink:href="#g" fill="#00000000" class="typst-text" transform="matrix(1 0 0 -1 357.397 148.181)"/><use xlink:href="#u" class="typst-text" transform="matrix(1 0 0 -1 363.567 149.593)"/></g><g class="typst-group"><use xlink:href="#g" fill="#00000000" class="typst-text" transform="matrix(1 0 0 -1 374.797 148.181)"/><use xlink:href="#l" class="typst-text" transform="matrix(1 0 0 -1 380.967 149.593)"/></g><g class="typst-group"><use xlink:href="#g" fill="#00000000" class="typst-text" transform="matrix(1 0 0 -1 392.197 148.181)"/><use xlink:href="#l" class="typst-text" transform="matrix(1 0 0 -1 398.367 149.593)"/></g><g class="typst-group"><use xlink:href="#g" fill="#00000000" class="typst-text" transform="matrix(1 0 0 -1 409.597 148.181)"/><use xlink:href="#m" class="typst-text" transform="matrix(1 0 0 -1 415.767 149.593)"/></g><g class="typst-group"><use xlink:href="#g" fill="#00000000" class="typst-text" transform="matrix(1 0 0 -1 426.997 148.181)"/><use xlink:href="#v" class="typst-text" transform="matrix(1 0 0 -1 433.167 149.593)"/></g><g class="typst-group"><use xlink:href="#g" fill="#00000000" class="typst-text" transform="matrix(1 0 0 -1 444.397 148.181)"/><use xlink:href="#i" class="typst-text" transform="matrix(1 0 0 -1 450.567 149.593)"/></g><g class="typst-group"><use xlink:href="#g" fill="#00000000" class="typst-text" transform="matrix(1 0 0 -1 461.797 148.181)"/><use xlink:href="#l" class="typst-text" transform="matrix(1 0 0 -1 467.967 149.593)"/></g><g class="typst-group"><use xlink:href="#g" fill="#00000000" class="typst-text" transform="matrix(1 0 0 -1 479.197 148.181)"/></g></g><g class="typst-group"><g class="typst-text" transform="matrix(1 0 0 -1 98.538 165.769)"><use xlink:href="#w"/><use xlink:href="#x" x="7.7"/></g><g class="typst-group"><use xlink:href="#g" fill="#00000000" class="typst-text" transform="matrix(1 0 0 -1 113.797 165.581)"/><use xlink:href="#y" class="typst-text" transform="matrix(1 0 0 -1 119.967 167.108)"/></g><g class="typst-group"><use xlink:href="#g" fill="#00000000" class="typst-text" transform="matrix(1 0 0 -1 131.197 165.581)"/><use xlink:href="#z" class="typst-text" transform="matrix(1 0 0 -1 137.367 166.971)"/></g><g class="typst-group"><use xlink:href="#g" fill="#00000000" class="typst-text" transform="matrix(1 0 0 -1 148.597 165.581)"/><use xlink:href="#q" class="typst-text" transform="matrix(1 0 0 -1 154.767 166.971)"/></g><g class="typst-group"><use xlink:href="#g" fill="#00000000" class="typst-text" transform="matrix(1 0 0 -1 165.997 165.581)"/><use xlink:href="#z" class="typst-text" transform="matrix(1 0 0 -1 172.167 166.971)"/></g><g class="typst-group"><use xlink:href="#g" fill="#00000000" class="typst-text" transform="matrix(1 0 0 -1 183.397 165.581)"/><use xlink:href="#r" class="typst-text" transform="matrix(1 0 0 -1 189.567 166.971)"/></g><g class="typst-group"><use xlink:href="#g" fill="#00000000" class="typst-text" transform="matrix(1 0 0 -1 200.797 165.581)"/><use xlink:href="#A" class="typst-text" transform="matrix(1 0 0 -1 206.967 166.971)"/></g><g class="typst-group"><use xlink:href="#g" fill="#00000000" class="typst-text" transform="matrix(1 0 0 -1 218.197 165.581)"/></g><g class="typst-group"><use xlink:href="#g" fill="#00000000" class="typst-text" transform="matrix(1 0 0 -1 235.597 165.581)"/><use xlink:href="#q" class="typst-text" transform="matrix(1 0 0 -1 241.767 166.971)"/></g><g class="typst-group"><use xlink:href="#g" fill="#00000000" class="typst-text" transform="matrix(1 0 0 -1 252.997 165.581)"/></g><g class="typst-group"><use xlink:href="#g" fill="#00000000" class="typst-text" transform="matrix(1 0 0 -1 270.397 165.581)"/><use xlink:href="#z" class="typst-text" transform="matrix(1 0 0 -1 276.567 166.971)"/></g><g class="typst-group"><use xlink:href="#g" fill="#00000000" class="typst-text" transform="matrix(1 0 0 -1 287.797 165.581)"/><use xlink:href="#B" class="typst-text" transform="matrix(1 0 0 -1 293.967 166.971)"/></g><g class="typst-group"><use xlink:href="#g" fill="#00000000" class="typst-text" transform="matrix(1 0 0 -1 305.197 165.581)"/><use xlink:href="#s" class="typst-text" transform="matrix(1 0 0 -1 311.367 166.971)"/></g><g class="typst-group"><use xlink:href="#g" fill="#00000000" class="typst-text" transform="matrix(1 0 0 -1 322.597 165.581)"/><use xlink:href="#A" class="typst-text" transform="matrix(1 0 0 -1 328.767 166.971)"/></g><g class="typst-group"><use xlink:href="#g" fill="#00000000" class="typst-text" transform="matrix(1 0 0 -1 339.997 165.581)"/><use xlink:href="#C" class="typst-text" transform="matrix(1 0 0 -1 346.167 166.971)"/></g><g class="typst-group"><use xlink:href="#g" fill="#00000000" class="typst-text" transform="matrix(1 0 0 -1 357.397 165.581)"/><use xlink:href="#D" class="typst-text" transform="matrix(1 0 0 -1 363.567 166.971)"/></g><g class="typst-group"><use xlink:href="#g" fill="#00000000" class="typst-text" transform="matrix(1 0 0 -1 374.797 165.581)"/><use xlink:href="#s" class="typst-text" transform="matrix(1 0 0 -1 380.967 166.971)"/></g><g class="typst-group"><use xlink:href="#g" fill="#00000000" class="typst-text" transform="matrix(1 0 0 -1 392.197 165.581)"/><use xlink:href="#B" class="typst-text" transform="matrix(1 0 0 -1 398.367 166.971)"/></g><g class="typst-group"><use xlink:href="#g" fill="#00000000" class="typst-text" transform="matrix(1 0 0 -1 409.597 165.581)"/><use xlink:href="#E" class="typst-text" transform="matrix(1 0 0 -1 415.767 166.971)"/></g><g class="typst-group"><use xlink:href="#g" fill="#00000000" class="typst-text" transform="matrix(1 0 0 -1 426.997 165.581)"/><use xlink:href="#F" class="typst-text" transform="matrix(1 0 0 -1 433.167 166.971)"/></g><g class="typst-group"><use xlink:href="#g" fill="#00000000" class="typst-text" transform="matrix(1 0 0 -1 444.397 165.581)"/><use xlink:href="#q" class="typst-text" transform="matrix(1 0 0 -1 450.567 166.971)"/></g><g class="typst-group"><use xlink:href="#g" fill="#00000000" class="typst-text" transform="matrix(1 0 0 -1 461.797 165.581)"/><use xlink:href="#s" class="typst-text" transform="matrix(1 0 0 -1 467.967 166.971)"/></g><g class="typst-group"><use xlink:href="#g" fill="#00000000" class="typst-text" transform="matrix(1 0 0 -1 479.197 165.581)"/></g></g><g class="typst-group"><g class="typst-text" transform="matrix(1 0 0 -1 98.538 183.169)"><use xlink:href="#G"/><use xlink:href="#H" x="7.7"/></g><g class="typst-group"><use xlink:href="#g" fill="#00000000" class="typst-text" transform="matrix(1 0 0 -1 113.797 182.981)"/></g><g class="typst-group"><use xlink:href="#g" fill="#00000000" class="typst-text" transform="matrix(1 0 0 -1 131.197 182.981)"/><use xlink:href="#p" class="typst-text" transform="matrix(1 0 0 -1 137.367 184.371)"/></g><g class="typst-group"><use xlink:href="#g" fill="#00000000" class="typst-text" transform="matrix(1 0 0 -1 148.597 182.981)"/><use xlink:href="#q" class="typst-text" transform="matrix(1 0 0 -1 154.767 184.371)"/></g><g class="typst-group"><use xlink:href="#g" fill="#00000000" class="typst-text" transform="matrix(1 0 0 -1 165.997 182.981)"/><use xlink:href="#p" class="typst-text" transform="matrix(1 0 0 -1 172.167 184.371)"/></g><g class="typst-group"><use xlink:href="#g" fill="#00000000" class="typst-text" transform="matrix(1 0 0 -1 183.397 182.981)"/><use xlink:href="#j" class="typst-text" transform="matrix(1 0 0 -1 189.567 184.371)"/></g><g class="typst-group"><use xlink:href="#g" fill="#00000000" class="typst-text" transform="matrix(1 0 0 -1 200.797 182.981)"/><use xlink:href="#A" class="typst-text" transform="matrix(1 0 0 -1 206.967 184.371)"/></g><g class="typst-group"><use xlink:href="#g" fill="#00000000" class="typst-text" transform="matrix(1 0 0 -1 218.197 182.981)"/><use xlink:href="#I" class="typst-text" transform="matrix(1 0 0 -1 224.367 184.508)"/></g><g class="typst-group"><use xlink:href="#g" fill="#00000000" class="typst-text" transform="matrix(1 0 0 -1 235.597 182.981)"/><use xlink:href="#q" class="typst-text" transform="matrix(1 0 0 -1 241.767 184.371)"/></g><g class="typst-group"><use xlink:href="#g" fill="#00000000" class="typst-text" transform="matrix(1 0 0 -1 252.997 182.981)"/><use xlink:href="#B" class="typst-text" transform="matrix(1 0 0 -1 259.167 184.371)"/></g><g class="typst-group"><use xlink:href="#g" fill="#00000000" class="typst-text" transform="matrix(1 0 0 -1 270.397 182.981)"/><use xlink:href="#p" class="typst-text" transform="matrix(1 0 0 -1 276.567 184.371)"/></g><g class="typst-group"><use xlink:href="#g" fill="#00000000" class="typst-text" transform="matrix(1 0 0 -1 287.797 182.981)"/><use xlink:href="#B" class="typst-text" transform="matrix(1 0 0 -1 293.967 184.371)"/></g><g class="typst-group"><use xlink:href="#g" fill="#00000000" class="typst-text" transform="matrix(1 0 0 -1 305.197 182.981)"/><use xlink:href="#s" class="typst-text" transform="matrix(1 0 0 -1 311.367 184.371)"/></g><g class="typst-group"><use xlink:href="#g" fill="#00000000" class="typst-text" transform="matrix(1 0 0 -1 322.597 182.981)"/><use xlink:href="#A" class="typst-text" transform="matrix(1 0 0 -1 328.767 184.371)"/></g><g class="typst-group"><use xlink:href="#g" fill="#00000000" class="typst-text" transform="matrix(1 0 0 -1 339.997 182.981)"/></g><g class="typst-group"><use xlink:href="#g" fill="#00000000" class="typst-text" transform="matrix(1 0 0 -1 357.397 182.981)"/></g><g class="typst-group"><use xlink:href="#g" fill="#00000000" class="typst-text" transform="matrix(1 0 0 -1 374.797 182.981)"/></g><g class="typst-group"><use xlink:href="#g" fill="#00000000" class="typst-text" transform="matrix(1 0 0 -1 392.197 182.981)"/></g><g class="typst-group"><use xlink:href="#g" fill="#00000000" class="typst-text" transform="matrix(1 0 0 -1 409.597 182.981)"/></g><g class="typst-group"><use xlink:href="#g" fill="#00000000" class="typst-text" transform="matrix(1 0 0 -1 426.997 182.981)"/></g><g class="typst-group"><use xlink:href="#g" fill="#00000000" class="typst-text" transform="matrix(1 0 0 -1 444.397 182.981)"/></g><g class="typst-group"><use xlink:href="#g" fill="#00000000" class="typst-text" transform="matrix(1 0 0 -1 461.797 182.981)"/></g><g class="typst-group"><use xlink:href="#g" fill="#00000000" class="typst-text" transform="matrix(1 0 0 -1 479.197 182.981)"/><use xlink:href="#E" class="typst-text" transform="matrix(1 0 0 -1 485.367 184.371)"/></g></g><g class="typst-group"><g class="typst-text" transform="matrix(1 0 0 -1 98.538 200.569)"><use xlink:href="#G"/><use xlink:href="#J" x="7.7"/></g><g class="typst-group"><use xlink:href="#g" fill="#00000000" class="typst-text" transform="matrix(1 0 0 -1 113.797 200.381)"/></g><g class="typst-group"><use xlink:href="#g" fill="#00000000" class="typst-text" transform="matrix(1 0 0 -1 131.197 200.381)"/><use xlink:href="#p" class="typst-text" transform="matrix(1 0 0 -1 137.367 201.771)"/></g><g class="typst-group"><use xlink:href="#g" fill="#00000000" class="typst-text" transform="matrix(1 0 0 -1 148.597 200.381)"/><use xlink:href="#q" class="typst-text" transform="matrix(1 0 0 -1 154.767 201.771)"/></g><g class="typst-group"><use xlink:href="#g" fill="#00000000" class="typst-text" transform="matrix(1 0 0 -1 165.997 200.381)"/><use xlink:href="#p" class="typst-text" transform="matrix(1 0 0 -1 172.167 201.771)"/></g><g class="typst-group"><use xlink:href="#g" fill="#00000000" class="typst-text" transform="matrix(1 0 0 -1 183.397 200.381)"/><use xlink:href="#j" class="typst-text" transform="matrix(1 0 0 -1 189.567 201.771)"/></g><g class="typst-group"><use xlink:href="#g" fill="#00000000" class="typst-text" transform="matrix(1 0 0 -1 200.797 200.381)"/><use xlink:href="#A" class="typst-text" transform="matrix(1 0 0 -1 206.967 201.771)"/></g><g class="typst-group"><use xlink:href="#g" fill="#00000000" class="typst-text" transform="matrix(1 0 0 -1 218.197 200.381)"/></g><g class="typst-group"><use xlink:href="#g" fill="#00000000" class="typst-text" transform="matrix(1 0 0 -1 235.597 200.381)"/><use xlink:href="#q" class="typst-text" transform="matrix(1 0 0 -1 241.767 201.771)"/></g><g class="typst-group"><use xlink:href="#g" fill="#00000000" class="typst-text" transform="matrix(1 0 0 -1 252.997 200.381)"/></g><g class="typst-group"><use xlink:href="#g" fill="#00000000" class="typst-text" transform="matrix(1 0 0 -1 270.397 200.381)"/><use xlink:href="#p" class="typst-text" transform="matrix(1 0 0 -1 276.567 201.771)"/></g><g class="typst-group"><use xlink:href="#g" fill="#00000000" class="typst-text" transform="matrix(1 0 0 -1 287.797 200.381)"/><use xlink:href="#B" class="typst-text" transform="matrix(1 0 0 -1 293.967 201.771)"/></g><g class="typst-group"><use xlink:href="#g" fill="#00000000" class="typst-text" transform="matrix(1 0 0 -1 305.197 200.381)"/><use xlink:href="#s" class="typst-text" transform="matrix(1 0 0 -1 311.367 201.771)"/></g><g class="typst-group"><use xlink:href="#g" fill="#00000000" class="typst-text" transform="matrix(1 0 0 -1 322.597 200.381)"/><use xlink:href="#A" class="typst-text" transform="matrix(1 0 0 -1 328.767 201.771)"/></g><g class="typst-group"><use xlink:href="#g" fill="#00000000" class="typst-text" transform="matrix(1 0 0 -1 339.997 200.381)"/></g><g class="typst-group"><use xlink:href="#g" fill="#00000000" class="typst-text" transform="matrix(1 0 0 -1 357.397 200.381)"/></g><g class="typst-group"><use xlink:href="#g" fill="#00000000" class="typst-text" transform="matrix(1 0 0 -1 374.797 200.381)"/></g><g class="typst-group"><use xlink:href="#g" fill="#00000000" class="typst-text" transform="matrix(1 0 0 -1 392.197 200.381)"/></g><g class="typst-group"><use xlink:href="#g" fill="#00000000" class="typst-text" transform="matrix(1 0 0 -1 409.597 200.381)"/></g><g class="typst-group"><use xlink:href="#g" fill="#00000000" class="typst-text" transform="matrix(1 0 0 -1 426.997 200.381)"/></g><g class="typst-group"><use xlink:href="#g" fill="#00000000" class="typst-text" transform="matrix(1 0 0 -1 444.397 200.381)"/></g><g class="typst-group"><use xlink:href="#g" fill="#00000000" class="typst-text" transform="matrix(1 0 0 -1 461.797 200.381)"/></g><g class="typst-group"><use xlink:href="#g" fill="#00000000" class="typst-text" transform="matrix(1 0 0 -1 479.197 200.381)"/><use xlink:href="#E" class="typst-text" transform="matrix(1 0 0 -1 485.367 201.771)"/></g></g></g></g><g class="typst-group"><path fill="#0000000c" d="M90.709 252.662a1.6 1.6 0 0 1 1.6-1.6h341.058a1.6 1.6 0 0 1 1.6 1.6v93.8a1.6 1.6 0 0 1-1.6 1.6H92.309a1.6 1.6 0 0 1-1.6-1.6Z" class="typst-shape"/><g class="typst-group"><path fill="url(#e)" d="M0 0v17.4h17.4V0Z" class="typst-shape" transform="translate(116.767 256.062)"/><path fill="url(#e)" d="M0 0v17.4h17.4V0Z" class="typst-shape" transform="translate(116.767 273.462)"/><path fill="url(#e)" d="M0 0v17.4h17.4V0Z" class="typst-shape" transform="translate(116.767 290.862)"/><path fill="url(#e)" d="M0 0v17.4h17.4V0Z" class="typst-shape" transform="translate(116.767 308.262)"/><path fill="url(#e)" d="M0 0v17.4h17.4V0Z" class="typst-shape" transform="translate(116.767 325.662)"/><path fill="url(#e)" d="M0 0v17.4h17.4V0Z" class="typst-shape" transform="translate(134.167 256.062)"/><path fill="url(#e)" d="M0 0v17.4h17.4V0Z" class="typst-shape" transform="translate(134.167 273.462)"/><path fill="url(#e)" d="M0 0v17.4h17.4V0Z" class="typst-shape" transform="translate(134.167 290.862)"/><path fill="url(#e)" d="M0 0v17.4h17.4V0Z" class="typst-shape" transform="translate(134.167 308.262)"/><path fill="url(#e)" d="M0 0v17.4h17.4V0Z" class="typst-shape" transform="translate(134.167 325.662)"/><path fill="url(#e)" d="M0 0v17.4h17.4V0Z" class="typst-shape" transform="translate(151.567 256.062)"/><path fill="url(#e)" d="M0 0v17.4h17.4V0Z" class="typst-shape" transform="translate(151.567 273.462)"/><path fill="url(#e)" d="M0 0v17.4h17.4V0Z" class="typst-shape" transform="translate(151.567 290.862)"/><path fill="url(#e)" d="M0 0v17.4h17.4V0Z" class="typst-shape" transform="translate(151.567 308.262)"/><path fill="url(#e)" d="M0 0v17.4h17.4V0Z" class="typst-shape" transform="translate(151.567 325.662)"/><path fill="url(#e)" d="M0 0v17.4h17.4V0Z" class="typst-shape" transform="translate(168.967 256.062)"/><path fill="url(#e)" d="M0 0v17.4h17.4V0Z" class="typst-shape" transform="translate(168.967 273.462)"/><path fill="url(#e)" d="M0 0v17.4h17.4V0Z" class="typst-shape" transform="translate(168.967 290.862)"/><path fill="url(#e)" d="M0 0v17.4h17.4V0Z" class="typst-shape" transform="translate(168.967 308.262)"/><path fill="url(#e)" d="M0 0v17.4h17.4V0Z" class="typst-shape" transform="translate(168.967 325.662)"/><path fill="url(#e)" d="M0 0v17.4h17.4V0Z" class="typst-shape" transform="translate(186.367 256.062)"/><path fill="url(#e)" d="M0 0v17.4h17.4V0Z" class="typst-shape" transform="translate(186.367 273.462)"/><path fill="url(#e)" d="M0 0v17.4h17.4V0Z" class="typst-shape" transform="translate(186.367 290.862)"/><path fill="url(#e)" d="M0 0v17.4h17.4V0Z" class="typst-shape" transform="translate(186.367 308.262)"/><path fill="url(#e)" d="M0 0v17.4h17.4V0Z" class="typst-shape" transform="translate(186.367 325.662)"/><path fill="url(#e)" d="M0 0v17.4h17.4V0Z" class="typst-shape" transform="translate(203.767 256.062)"/><path fill="url(#e)" d="M0 0v17.4h17.4V0Z" class="typst-shape" transform="translate(203.767 273.462)"/><path fill="url(#e)" d="M0 0v17.4h17.4V0Z" class="typst-shape" transform="translate(203.767 290.862)"/><path fill="url(#e)" d="M0 0v17.4h17.4V0Z" class="typst-shape" transform="translate(203.767 308.262)"/><path fill="url(#e)" d="M0 0v17.4h17.4V0Z" class="typst-shape" transform="translate(203.767 325.662)"/><path fill="url(#e)" d="M0 0v17.4h17.4V0Z" class="typst-shape" transform="translate(221.167 256.062)"/><path fill="url(#e)" d="M0 0v17.4h17.4V0Z" class="typst-shape" transform="translate(221.167 273.462)"/><path fill="url(#e)" d="M0 0v17.4h17.4V0Z" class="typst-shape" transform="translate(221.167 290.862)"/><path fill="url(#e)" d="M0 0v17.4h17.4V0Z" class="typst-shape" transform="translate(221.167 308.262)"/><path fill="url(#e)" d="M0 0v17.4h17.4V0Z" class="typst-shape" transform="translate(221.167 325.662)"/><path fill="url(#e)" d="M0 0v17.4h17.4V0Z" class="typst-shape" transform="translate(238.567 256.062)"/><path fill="url(#e)" d="M0 0v17.4h17.4V0Z" class="typst-shape" transform="translate(238.567 273.462)"/><path fill="url(#e)" d="M0 0v17.4h17.4V0Z" class="typst-shape" transform="translate(238.567 290.862)"/><path fill="url(#e)" d="M0 0v17.4h17.4V0Z" class="typst-shape" transform="translate(238.567 308.262)"/><path fill="url(#e)" d="M0 0v17.4h17.4V0Z" class="typst-shape" transform="translate(238.567 325.662)"/><path fill="url(#e)" d="M0 0v17.4h17.4V0Z" class="typst-shape" transform="translate(255.967 256.062)"/><path fill="url(#e)" d="M0 0v17.4h17.4V0Z" class="typst-shape" transform="translate(255.967 273.462)"/><path fill="url(#e)" d="M0 0v17.4h17.4V0Z" class="typst-shape" transform="translate(255.967 290.862)"/><path fill="url(#e)" d="M0 0v17.4h17.4V0Z" class="typst-shape" transform="translate(255.967 308.262)"/><path fill="url(#e)" d="M0 0v17.4h17.4V0Z" class="typst-shape" transform="translate(255.967 325.662)"/><path fill="url(#e)" d="M0 0v17.4h17.4V0Z" class="typst-shape" transform="translate(273.367 256.062)"/><path fill="url(#e)" d="M0 0v17.4h17.4V0Z" class="typst-shape" transform="translate(273.367 273.462)"/><path fill="url(#e)" d="M0 0v17.4h17.4V0Z" class="typst-shape" transform="translate(273.367 290.862)"/><path fill="url(#e)" d="M0 0v17.4h17.4V0Z" class="typst-shape" transform="translate(273.367 308.262)"/><path fill="url(#e)" d="M0 0v17.4h17.4V0Z" class="typst-shape" transform="translate(273.367 325.662)"/><path fill="url(#e)" d="M0 0v17.4h17.4V0Z" class="typst-shape" transform="translate(290.767 256.062)"/><path fill="url(#e)" d="M0 0v17.4h17.4V0Z" class="typst-shape" transform="translate(290.767 273.462)"/><path fill="url(#f)" d="M0 0v17.4h17.4V0Z" class="typst-shape" transform="translate(290.767 290.862)"/><path fill="url(#e)" d="M0 0v17.4h17.4V0Z" class="typst-shape" transform="translate(290.767 308.262)"/><path fill="url(#e)" d="M0 0v17.4h17.4V0Z" class="typst-shape" transform="translate(290.767 325.662)"/><path fill="url(#e)" d="M0 0v17.4h17.4V0Z" class="typst-shape" transform="translate(308.167 256.062)"/><path fill="url(#e)" d="M0 0v17.4h17.4V0Z" class="typst-shape" transform="translate(308.167 273.462)"/><path fill="url(#e)" d="M0 0v17.4h17.4V0Z" class="typst-shape" transform="translate(308.167 290.862)"/><path fill="url(#e)" d="M0 0v17.4h17.4V0Z" class="typst-shape" transform="translate(308.167 308.262)"/><path fill="url(#e)" d="M0 0v17.4h17.4V0Z" class="typst-shape" transform="translate(308.167 325.662)"/><path fill="url(#e)" d="M0 0v17.4h17.4V0Z" class="typst-shape" transform="translate(325.567 256.062)"/><path fill="url(#e)" d="M0 0v17.4h17.4V0Z" class="typst-shape" transform="translate(325.567 273.462)"/><path fill="url(#e)" d="M0 0v17.4h17.4V0Z" class="typst-shape" transform="translate(325.567 290.862)"/><path fill="url(#e)" d="M0 0v17.4h17.4V0Z" class="typst-shape" transform="translate(325.567 308.262)"/><path fill="url(#e)" d="M0 0v17.4h17.4V0Z" class="typst-shape" transform="translate(325.567 325.662)"/><path fill="url(#e)" d="M0 0v17.4h17.4V0Z" class="typst-shape" transform="translate(342.967 256.062)"/><path fill="url(#e)" d="M0 0v17.4h17.4V0Z" class="typst-shape" transform="translate(342.967 273.462)"/><path fill="url(#e)" d="M0 0v17.4h17.4V0Z" class="typst-shape" transform="translate(342.967 290.862)"/><path fill="url(#e)" d="M0 0v17.4h17.4V0Z" class="typst-shape" transform="translate(342.967 308.262)"/><path fill="url(#e)" d="M0 0v17.4h17.4V0Z" class="typst-shape" transform="translate(342.967 325.662)"/><path fill="url(#e)" d="M0 0v17.4h17.4V0Z" class="typst-shape" transform="translate(360.367 256.062)"/><path fill="url(#e)" d="M0 0v17.4h17.4V0Z" class="typst-shape" transform="translate(360.367 273.462)"/><path fill="url(#e)" d="M0 0v17.4h17.4V0Z" class="typst-shape" transform="translate(360.367 290.862)"/><path fill="url(#e)" d="M0 0v17.4h17.4V0Z" class="typst-shape" transform="translate(360.367 308.262)"/><path fill="url(#e)" d="M0 0v17.4h17.4V0Z" class="typst-shape" transform="translate(360.367 325.662)"/><path fill="url(#e)" d="M0 0v17.4h17.4V0Z" class="typst-shape" transform="translate(377.767 256.062)"/><path fill="url(#e)" d="M0 0v17.4h17.4V0Z" class="typst-shape" transform="translate(377.767 273.462)"/><path fill="url(#e)" d="M0 0v17.4h17.4V0Z" class="typst-shape" transform="translate(377.767 290.862)"/><path fill="url(#e)" d="M0 0v17.4h17.4V0Z" class="typst-shape" transform="translate(377.767 308.262)"/><path fill="url(#e)" d="M0 0v17.4h17.4V0Z" class="typst-shape" transform="translate(377.767 325.662)"/><path fill="url(#e)" d="M0 0v17.4h17.4V0Z" class="typst-shape" transform="translate(395.167 256.062)"/><path fill="url(#e)" d="M0 0v17.4h17.4V0Z" class="typst-shape" transform="translate(395.167 273.462)"/><path fill="url(#e)" d="M0 0v17.4h17.4V0Z" class="typst-shape" transform="translate(395.167 290.862)"/><path fill="url(#e)" d="M0 0v17.4h17.4V0Z" class="typst-shape" transform="translate(395.167 308.262)"/><path fill="url(#e)" d="M0 0v17.4h17.4V0Z" class="typst-shape" transform="translate(395.167 325.662)"/><path fill="url(#e)" d="M0 0v17.4h17.4V0Z" class="typst-shape" transform="translate(412.567 256.062)"/><path fill="url(#e)" d="M0 0v17.4h17.4V0Z" class="typst-shape" transform="translate(412.567 273.462)"/><path fill="url(#e)" d="M0 0v17.4h17.4V0Z" class="typst-shape" transform="translate(412.567 290.862)"/><path fill="url(#e)" d="M0 0v17.4h17.4V0Z" class="typst-shape" transform="translate(412.567 308.262)"/><path fill="url(#e)" d="M0 0v17.4h17.4V0Z" class="typst-shape" transform="translate(412.567 325.662)"/><g class="typst-group"><use xlink:href="#g" fill="#00000000" class="typst-text" transform="matrix(1 0 0 -1 113.797 267.381)"/><use xlink:href="#v" class="typst-text" transform="matrix(1 0 0 -1 119.967 268.793)"/></g><g class="typst-group"><use xlink:href="#g" fill="#00000000" class="typst-text" transform="matrix(1 0 0 -1 131.197 267.381)"/><use xlink:href="#K" class="typst-text" transform="matrix(1 0 0 -1 137.367 268.793)"/></g><g class="typst-group"><use xlink:href="#g" fill="#00000000" class="typst-text" transform="matrix(1 0 0 -1 148.597 267.381)"/><use xlink:href="#L" class="typst-text" transform="matrix(1 0 0 -1 154.767 268.793)"/></g><g class="typst-group"><use xlink:href="#g" fill="#00000000" class="typst-text" transform="matrix(1 0 0 -1 165.997 267.381)"/><use xlink:href="#M" class="typst-text" transform="matrix(1 0 0 -1 172.167 268.793)"/></g><g class="typst-group"><use xlink:href="#g" fill="#00000000" class="typst-text" transform="matrix(1 0 0 -1 183.397 267.381)"/><use xlink:href="#i" class="typst-text" transform="matrix(1 0 0 -1 189.567 268.793)"/></g><g class="typst-group"><use xlink:href="#g" fill="#00000000" class="typst-text" transform="matrix(1 0 0 -1 200.797 267.381)"/><use xlink:href="#l" class="typst-text" transform="matrix(1 0 0 -1 206.967 268.793)"/></g><g class="typst-group"><use xlink:href="#g" fill="#00000000" class="typst-text" transform="matrix(1 0 0 -1 218.197 267.381)"/></g><g class="typst-group"><use xlink:href="#g" fill="#00000000" class="typst-text" transform="matrix(1 0 0 -1 235.597 267.381)"/></g><g class="typst-group"><use xlink:href="#g" fill="#00000000" class="typst-text" transform="matrix(1 0 0 -1 252.997 267.381)"/><use xlink:href="#v" class="typst-text" transform="matrix(1 0 0 -1 259.167 268.793)"/></g><g class="typst-group"><use xlink:href="#g" fill="#00000000" class="typst-text" transform="matrix(1 0 0 -1 270.397 267.381)"/><use xlink:href="#N" class="typst-text" transform="matrix(1 0 0 -1 276.567 268.793)"/></g><g class="typst-group"><use xlink:href="#g" fill="#00000000" class="typst-text" transform="matrix(1 0 0 -1 287.797 267.381)"/></g><g class="typst-group"><use xlink:href="#g" fill="#00000000" class="typst-text" transform="matrix(1 0 0 -1 305.197 267.381)"/><use xlink:href="#l" class="typst-text" transform="matrix(1 0 0 -1 311.367 268.793)"/></g><g class="typst-group"><use xlink:href="#g" fill="#00000000" class="typst-text" transform="matrix(1 0 0 -1 322.597 267.381)"/><use xlink:href="#l" class="typst-text" transform="matrix(1 0 0 -1 328.767 268.793)"/></g><g class="typst-group"><use xlink:href="#g" fill="#00000000" class="typst-text" transform="matrix(1 0 0 -1 339.997 267.381)"/></g><g class="typst-group"><use xlink:href="#g" fill="#00000000" class="typst-text" transform="matrix(1 0 0 -1 357.397 267.381)"/><use xlink:href="#m" class="typst-text" transform="matrix(1 0 0 -1 363.567 268.793)"/></g><g class="typst-group"><use xlink:href="#g" fill="#00000000" class="typst-text" transform="matrix(1 0 0 -1 374.797 267.381)"/><use xlink:href="#v" class="typst-text" transform="matrix(1 0 0 -1 380.967 268.793)"/></g><g class="typst-group"><use xlink:href="#g" fill="#00000000" class="typst-text" transform="matrix(1 0 0 -1 392.197 267.381)"/><use xlink:href="#i" class="typst-text" transform="matrix(1 0 0 -1 398.367 268.793)"/></g><g class="typst-group"><use xlink:href="#g" fill="#00000000" class="typst-text" transform="matrix(1 0 0 -1 409.597 267.381)"/><use xlink:href="#l" class="typst-text" transform="matrix(1 0 0 -1 415.767 268.793)"/></g><g class="typst-group"><g class="typst-text" transform="matrix(1 0 0 -1 98.538 284.969)"><use xlink:href="#n"/><use xlink:href="#o" x="7.7"/></g><g class="typst-group"><use xlink:href="#g" fill="#00000000" class="typst-text" transform="matrix(1 0 0 -1 113.797 284.781)"/></g><g class="typst-group"><use xlink:href="#g" fill="#00000000" class="typst-text" transform="matrix(1 0 0 -1 131.197 284.781)"/><use xlink:href="#O" class="typst-text" transform="matrix(1 0 0 -1 137.367 286.171)"/></g><g class="typst-group"><use xlink:href="#g" fill="#00000000" class="typst-text" transform="matrix(1 0 0 -1 148.597 284.781)"/><use xlink:href="#P" class="typst-text" transform="matrix(1 0 0 -1 154.767 286.171)"/></g><g class="typst-group"><use xlink:href="#g" fill="#00000000" class="typst-text" transform="matrix(1 0 0 -1 165.997 284.781)"/></g><g class="typst-group"><use xlink:href="#g" fill="#00000000" class="typst-text" transform="matrix(1 0 0 -1 183.397 284.781)"/><use xlink:href="#q" class="typst-text" transform="matrix(1 0 0 -1 189.567 286.171)"/></g><g class="typst-group"><use xlink:href="#g" fill="#00000000" class="typst-text" transform="matrix(1 0 0 -1 200.797 284.781)"/><use xlink:href="#s" class="typst-text" transform="matrix(1 0 0 -1 206.967 286.171)"/></g><g class="typst-group"><use xlink:href="#g" fill="#00000000" class="typst-text" transform="matrix(1 0 0 -1 218.197 284.781)"/></g><g class="typst-group"><use xlink:href="#g" fill="#00000000" class="typst-text" transform="matrix(1 0 0 -1 235.597 284.781)"/></g><g class="typst-group"><use xlink:href="#g" fill="#00000000" class="typst-text" transform="matrix(1 0 0 -1 252.997 284.781)"/><use xlink:href="#F" class="typst-text" transform="matrix(1 0 0 -1 259.167 286.171)"/></g><g class="typst-group"><use xlink:href="#g" fill="#00000000" class="typst-text" transform="matrix(1 0 0 -1 270.397 284.781)"/><use xlink:href="#Q" class="typst-text" transform="matrix(1 0 0 -1 276.567 286.171)"/></g><g class="typst-group"><use xlink:href="#g" fill="#00000000" class="typst-text" transform="matrix(1 0 0 -1 287.797 284.781)"/></g><g class="typst-group"><use xlink:href="#g" fill="#00000000" class="typst-text" transform="matrix(1 0 0 -1 305.197 284.781)"/><use xlink:href="#s" class="typst-text" transform="matrix(1 0 0 -1 311.367 286.171)"/></g><g class="typst-group"><use xlink:href="#g" fill="#00000000" class="typst-text" transform="matrix(1 0 0 -1 322.597 284.781)"/><use xlink:href="#s" class="typst-text" transform="matrix(1 0 0 -1 328.767 286.171)"/></g><g class="typst-group"><use xlink:href="#g" fill="#00000000" class="typst-text" transform="matrix(1 0 0 -1 339.997 284.781)"/></g><g class="typst-group"><use xlink:href="#g" fill="#00000000" class="typst-text" transform="matrix(1 0 0 -1 357.397 284.781)"/><use xlink:href="#E" class="typst-text" transform="matrix(1 0 0 -1 363.567 286.171)"/></g><g class="typst-group"><use xlink:href="#g" fill="#00000000" class="typst-text" transform="matrix(1 0 0 -1 374.797 284.781)"/><use xlink:href="#F" class="typst-text" transform="matrix(1 0 0 -1 380.967 286.171)"/></g><g class="typst-group"><use xlink:href="#g" fill="#00000000" class="typst-text" transform="matrix(1 0 0 -1 392.197 284.781)"/><use xlink:href="#q" class="typst-text" transform="matrix(1 0 0 -1 398.367 286.171)"/></g><g class="typst-group"><use xlink:href="#g" fill="#00000000" class="typst-text" transform="matrix(1 0 0 -1 409.597 284.781)"/><use xlink:href="#s" class="typst-text" transform="matrix(1 0 0 -1 415.767 286.171)"/></g></g><g class="typst-group"><g class="typst-text" transform="matrix(1 0 0 -1 98.538 302.369)"><use xlink:href="#w"/><use xlink:href="#x" x="7.7"/></g><g class="typst-group"><use xlink:href="#g" fill="#00000000" class="typst-text" transform="matrix(1 0 0 -1 113.797 302.181)"/></g><g class="typst-group"><use xlink:href="#g" fill="#00000000" class="typst-text" transform="matrix(1 0 0 -1 131.197 302.181)"/><use xlink:href="#O" class="typst-text" transform="matrix(1 0 0 -1 137.367 303.572)"/></g><g class="typst-group"><use xlink:href="#g" fill="#00000000" class="typst-text" transform="matrix(1 0 0 -1 148.597 302.181)"/><use xlink:href="#P" class="typst-text" transform="matrix(1 0 0 -1 154.767 303.572)"/></g><g class="typst-group"><use xlink:href="#g" fill="#00000000" class="typst-text" transform="matrix(1 0 0 -1 165.997 302.181)"/><use xlink:href="#R" class="typst-text" transform="matrix(1 0 0 -1 172.167 303.572)"/></g><g class="typst-group"><use xlink:href="#g" fill="#00000000" class="typst-text" transform="matrix(1 0 0 -1 183.397 302.181)"/><use xlink:href="#R" class="typst-text" transform="matrix(1 0 0 -1 189.567 303.572)"/></g><g class="typst-group"><use xlink:href="#g" fill="#00000000" class="typst-text" transform="matrix(1 0 0 -1 200.797 302.181)"/><use xlink:href="#s" class="typst-text" transform="matrix(1 0 0 -1 206.967 303.572)"/></g><g class="typst-group"><use xlink:href="#g" fill="#00000000" class="typst-text" transform="matrix(1 0 0 -1 218.197 302.181)"/></g><g class="typst-group"><use xlink:href="#g" fill="#00000000" class="typst-text" transform="matrix(1 0 0 -1 235.597 302.181)"/></g><g class="typst-group"><use xlink:href="#g" fill="#00000000" class="typst-text" transform="matrix(1 0 0 -1 252.997 302.181)"/><use xlink:href="#F" class="typst-text" transform="matrix(1 0 0 -1 259.167 303.572)"/></g><g class="typst-group"><use xlink:href="#g" fill="#00000000" class="typst-text" transform="matrix(1 0 0 -1 270.397 302.181)"/><use xlink:href="#Q" class="typst-text" transform="matrix(1 0 0 -1 276.567 303.572)"/></g><g class="typst-group"><use xlink:href="#g" fill="#00000000" class="typst-text" transform="matrix(1 0 0 -1 287.797 302.181)"/><use xlink:href="#q" class="typst-text" transform="matrix(1 0 0 -1 293.967 303.572)"/></g><g class="typst-group"><use xlink:href="#g" fill="#00000000" class="typst-text" transform="matrix(1 0 0 -1 305.197 302.181)"/><use xlink:href="#s" class="typst-text" transform="matrix(1 0 0 -1 311.367 303.572)"/></g><g class="typst-group"><use xlink:href="#g" fill="#00000000" class="typst-text" transform="matrix(1 0 0 -1 322.597 302.181)"/><use xlink:href="#R" class="typst-text" transform="matrix(1 0 0 -1 328.767 303.572)"/></g><g class="typst-group"><use xlink:href="#g" fill="#00000000" class="typst-text" transform="matrix(1 0 0 -1 339.997 302.181)"/><use xlink:href="#R" class="typst-text" transform="matrix(1 0 0 -1 346.167 303.572)"/></g><g class="typst-group"><use xlink:href="#g" fill="#00000000" class="typst-text" transform="matrix(1 0 0 -1 357.397 302.181)"/><use xlink:href="#R" class="typst-text" transform="matrix(1 0 0 -1 363.567 303.572)"/></g><g class="typst-group"><use xlink:href="#g" fill="#00000000" class="typst-text" transform="matrix(1 0 0 -1 374.797 302.181)"/><use xlink:href="#R" class="typst-text" transform="matrix(1 0 0 -1 380.967 303.572)"/></g><g class="typst-group"><use xlink:href="#g" fill="#00000000" class="typst-text" transform="matrix(1 0 0 -1 392.197 302.181)"/><use xlink:href="#q" class="typst-text" transform="matrix(1 0 0 -1 398.367 303.572)"/></g><g class="typst-group"><use xlink:href="#g" fill="#00000000" class="typst-text" transform="matrix(1 0 0 -1 409.597 302.181)"/><use xlink:href="#s" class="typst-text" transform="matrix(1 0 0 -1 415.767 303.572)"/></g></g><g class="typst-group"><g class="typst-text" transform="matrix(1 0 0 -1 98.538 319.769)"><use xlink:href="#G"/><use xlink:href="#H" x="7.7"/></g><g class="typst-group"><use xlink:href="#g" fill="#00000000" class="typst-text" transform="matrix(1 0 0 -1 113.797 319.581)"/><use xlink:href="#F" class="typst-text" transform="matrix(1 0 0 -1 119.967 320.971)"/></g><g class="typst-group"><use xlink:href="#g" fill="#00000000" class="typst-text" transform="matrix(1 0 0 -1 131.197 319.581)"/><use xlink:href="#O" class="typst-text" transform="matrix(1 0 0 -1 137.367 320.971)"/></g><g class="typst-group"><use xlink:href="#g" fill="#00000000" class="typst-text" transform="matrix(1 0 0 -1 148.597 319.581)"/><use xlink:href="#P" class="typst-text" transform="matrix(1 0 0 -1 154.767 320.971)"/></g><g class="typst-group"><use xlink:href="#g" fill="#00000000" class="typst-text" transform="matrix(1 0 0 -1 165.997 319.581)"/><use xlink:href="#S" class="typst-text" transform="matrix(1 0 0 -1 172.167 320.971)"/></g><g class="typst-group"><use xlink:href="#g" fill="#00000000" class="typst-text" transform="matrix(1 0 0 -1 183.397 319.581)"/><use xlink:href="#q" class="typst-text" transform="matrix(1 0 0 -1 189.567 320.971)"/></g><g class="typst-group"><use xlink:href="#g" fill="#00000000" class="typst-text" transform="matrix(1 0 0 -1 200.797 319.581)"/><use xlink:href="#s" class="typst-text" transform="matrix(1 0 0 -1 206.967 320.971)"/></g><g class="typst-group"><use xlink:href="#g" fill="#00000000" class="typst-text" transform="matrix(1 0 0 -1 218.197 319.581)"/></g><g class="typst-group"><use xlink:href="#g" fill="#00000000" class="typst-text" transform="matrix(1 0 0 -1 235.597 319.581)"/><use xlink:href="#I" class="typst-text" transform="matrix(1 0 0 -1 241.767 321.108)"/></g><g class="typst-group"><use xlink:href="#g" fill="#00000000" class="typst-text" transform="matrix(1 0 0 -1 252.997 319.581)"/><use xlink:href="#F" class="typst-text" transform="matrix(1 0 0 -1 259.167 320.971)"/></g><g class="typst-group"><use xlink:href="#g" fill="#00000000" class="typst-text" transform="matrix(1 0 0 -1 270.397 319.581)"/><use xlink:href="#T" class="typst-text" transform="matrix(1 0 0 -1 276.567 320.971)"/></g><g class="typst-group"><use xlink:href="#g" fill="#00000000" class="typst-text" transform="matrix(1 0 0 -1 287.797 319.581)"/></g><g class="typst-group"><use xlink:href="#g" fill="#00000000" class="typst-text" transform="matrix(1 0 0 -1 305.197 319.581)"/><use xlink:href="#R" class="typst-text" transform="matrix(1 0 0 -1 311.367 320.971)"/></g><g class="typst-group"><use xlink:href="#g" fill="#00000000" class="typst-text" transform="matrix(1 0 0 -1 322.597 319.581)"/><use xlink:href="#R" class="typst-text" transform="matrix(1 0 0 -1 328.767 320.971)"/></g><g class="typst-group"><use xlink:href="#g" fill="#00000000" class="typst-text" transform="matrix(1 0 0 -1 339.997 319.581)"/></g><g class="typst-group"><use xlink:href="#g" fill="#00000000" class="typst-text" transform="matrix(1 0 0 -1 357.397 319.581)"/><use xlink:href="#R" class="typst-text" transform="matrix(1 0 0 -1 363.567 320.971)"/></g><g class="typst-group"><use xlink:href="#g" fill="#00000000" class="typst-text" transform="matrix(1 0 0 -1 374.797 319.581)"/><use xlink:href="#R" class="typst-text" transform="matrix(1 0 0 -1 380.967 320.971)"/></g><g class="typst-group"><use xlink:href="#g" fill="#00000000" class="typst-text" transform="matrix(1 0 0 -1 392.197 319.581)"/><use xlink:href="#R" class="typst-text" transform="matrix(1 0 0 -1 398.367 320.971)"/></g><g class="typst-group"><use xlink:href="#g" fill="#00000000" class="typst-text" transform="matrix(1 0 0 -1 409.597 319.581)"/><use xlink:href="#R" class="typst-text" transform="matrix(1 0 0 -1 415.767 320.971)"/></g></g><g class="typst-group"><g class="typst-text" transform="matrix(1 0 0 -1 98.538 337.169)"><use xlink:href="#G"/><use xlink:href="#J" x="7.7"/></g><g class="typst-group"><use xlink:href="#g" fill="#00000000" class="typst-text" transform="matrix(1 0 0 -1 113.797 336.981)"/><use xlink:href="#F" class="typst-text" transform="matrix(1 0 0 -1 119.967 338.371)"/></g><g class="typst-group"><use xlink:href="#g" fill="#00000000" class="typst-text" transform="matrix(1 0 0 -1 131.197 336.981)"/><use xlink:href="#U" class="typst-text" transform="matrix(1 0 0 -1 137.367 338.508)"/></g><g class="typst-group"><use xlink:href="#g" fill="#00000000" class="typst-text" transform="matrix(1 0 0 -1 148.597 336.981)"/><use xlink:href="#P" class="typst-text" transform="matrix(1 0 0 -1 154.767 338.371)"/></g><g class="typst-group"><use xlink:href="#g" fill="#00000000" class="typst-text" transform="matrix(1 0 0 -1 165.997 336.981)"/><use xlink:href="#S" class="typst-text" transform="matrix(1 0 0 -1 172.167 338.371)"/></g><g class="typst-group"><use xlink:href="#g" fill="#00000000" class="typst-text" transform="matrix(1 0 0 -1 183.397 336.981)"/><use xlink:href="#q" class="typst-text" transform="matrix(1 0 0 -1 189.567 338.371)"/></g><g class="typst-group"><use xlink:href="#g" fill="#00000000" class="typst-text" transform="matrix(1 0 0 -1 200.797 336.981)"/><use xlink:href="#R" class="typst-text" transform="matrix(1 0 0 -1 206.967 338.371)"/></g><g class="typst-group"><use xlink:href="#g" fill="#00000000" class="typst-text" transform="matrix(1 0 0 -1 218.197 336.981)"/><use xlink:href="#V" class="typst-text" transform="matrix(1 0 0 -1 224.367 338.371)"/></g><g class="typst-group"><use xlink:href="#g" fill="#00000000" class="typst-text" transform="matrix(1 0 0 -1 235.597 336.981)"/></g><g class="typst-group"><use xlink:href="#g" fill="#00000000" class="typst-text" transform="matrix(1 0 0 -1 252.997 336.981)"/><use xlink:href="#F" class="typst-text" transform="matrix(1 0 0 -1 259.167 338.371)"/></g><g class="typst-group"><use xlink:href="#g" fill="#00000000" class="typst-text" transform="matrix(1 0 0 -1 270.397 336.981)"/><use xlink:href="#T" class="typst-text" transform="matrix(1 0 0 -1 276.567 338.371)"/></g><g class="typst-group"><use xlink:href="#g" fill="#00000000" class="typst-text" transform="matrix(1 0 0 -1 287.797 336.981)"/></g><g class="typst-group"><use xlink:href="#g" fill="#00000000" class="typst-text" transform="matrix(1 0 0 -1 305.197 336.981)"/><use xlink:href="#s" class="typst-text" transform="matrix(1 0 0 -1 311.367 338.371)"/></g><g class="typst-group"><use xlink:href="#g" fill="#00000000" class="typst-text" transform="matrix(1 0 0 -1 322.597 336.981)"/><use xlink:href="#B" class="typst-text" transform="matrix(1 0 0 -1 328.767 338.371)"/></g><g class="typst-group"><use xlink:href="#g" fill="#00000000" class="typst-text" transform="matrix(1 0 0 -1 339.997 336.981)"/><use xlink:href="#V" class="typst-text" transform="matrix(1 0 0 -1 346.167 338.371)"/></g><g class="typst-group"><use xlink:href="#g" fill="#00000000" class="typst-text" transform="matrix(1 0 0 -1 357.397 336.981)"/><use xlink:href="#E" class="typst-text" transform="matrix(1 0 0 -1 363.567 338.371)"/></g><g class="typst-group"><use xlink:href="#g" fill="#00000000" class="typst-text" transform="matrix(1 0 0 -1 374.797 336.981)"/><use xlink:href="#F" class="typst-text" transform="matrix(1 0 0 -1 380.967 338.371)"/></g><g class="typst-group"><use xlink:href="#g" fill="#00000000" class="typst-text" transform="matrix(1 0 0 -1 392.197 336.981)"/><use xlink:href="#q" class="typst-text" transform="matrix(1 0 0 -1 398.367 338.371)"/></g><g class="typst-group"><use xlink:href="#g" fill="#00000000" class="typst-text" transform="matrix(1 0 0 -1 409.597 336.981)"/><use xlink:href="#s" class="typst-text" transform="matrix(1 0 0 -1 415.767 338.371)"/></g></g></g></g><g class="typst-group"><g class="typst-group"><g class="typst-text" transform="matrix(1 0 0 -1 90.709 394.077)"><use xlink:href="#W" x="-4.4"/><use xlink:href="#X" x="4.4"/><use xlink:href="#Y" x="13.2"/><use xlink:href="#Z" x="22"/></g></g><g class="typst-group"><g class="typst-text" transform="matrix(1 0 0 -1 120.629 394.077)"><use xlink:href="#aa"/><use xlink:href="#ab" x="4.946"/></g></g><use xlink:href="#ac" class="typst-text" transform="matrix(1 0 0 -1 130.485 394.077)"/><g class="typst-group"><g class="typst-text" transform="matrix(1 0 0 -1 139.285 394.077)"><use xlink:href="#aa"/><use xlink:href="#ad" x="4.946"/></g></g><g class="typst-group"><g class="typst-text" transform="matrix(1 0 0 -1 153.54 394.077)"><use xlink:href="#W" x="-4.4"/><use xlink:href="#ae" x="4.4"/><use xlink:href="#af" x="13.2"/><use xlink:href="#Z" x="22"/></g></g><g class="typst-group"><g class="typst-text" transform="matrix(1 0 0 -1 183.46 394.077)"><use xlink:href="#ag"/><use xlink:href="#ab" x="4.831"/></g></g><g class="typst-group"><g class="typst-text" transform="matrix(1 0 0 -1 197.602 394.077)"><use xlink:href="#W" x="-4.4"/><use xlink:href="#ae" x="4.4"/><use xlink:href="#ah" x="13.2"/><use xlink:href="#Z" x="22"/></g></g><g class="typst-group"><g class="typst-text" transform="matrix(1 0 0 -1 227.522 394.077)"><use xlink:href="#ai"/><use xlink:href="#ad" x="4.902"/><use xlink:href="#aj" x="9.812"/></g></g><use xlink:href="#ak" class="typst-text" transform="matrix(1 0 0 -1 246.134 394.077)"/></g><g class="typst-text" transform="matrix(1 0 0 -1 291.55 423.696)"><use xlink:href="#al"/><use xlink:href="#am" x="6.039"/></g><defs><symbol id="a" overflow="visible"><path d="M4.746 11.522V6.846l-4.06-.658.182-1.05 3.878.616V1.512c0-1.694.518-2.142 2.268-2.142h3.668c1.722 0 2.072.812 2.254 3.122a4 4 0 0 0-1.078.504C11.732.91 11.592.42 10.654.42H7.056c-1.008 0-1.19.196-1.19 1.064v4.452l7.49 1.19-.168 1.078-7.322-1.176v4.494Z"/></symbol><symbol id="b" overflow="visible"><path d="M6.454 11.746V6.524H.77V5.446h5.684V-1.12h1.134v6.566h5.74v1.078h-5.74v5.222Z"/></symbol><symbol id="c" overflow="visible"><path d="M.616 6.034V4.886H13.44v1.148Z"/></symbol><symbol id="d" overflow="visible"><path d="M3.318 4.228h7.336V3.22H3.318Zm0 1.722h7.336v-.994H3.318Zm-1.022.756V2.45h4.13v-.994H.658V.588h5.768v-1.694h1.092V.588h5.768v.868H7.518v.994h4.2v4.256Zm1.4 2.772c.224-.35.448-.784.602-1.162H.686v-.854h12.628v.854H9.688c.224.364.462.784.686 1.19l-1.092.252c-.168-.42-.476-.994-.742-1.442H5.432c-.168.42-.448.98-.742 1.4Zm2.366 2.24c.182-.322.406-.728.56-1.092H1.61v-.868h10.822v.868H7.784a8 8 0 0 1-.7 1.33Z"/></symbol><symbol id="g" overflow="visible"><path d="M-.055-.77h6.314v.528H-.055Z"/></symbol><symbol id="h" overflow="visible"><path d="M6.017 8.283V-.561h.803v.869h2.332V-.44h.836v8.723Zm.803-7.194v6.413h2.332V1.089ZM1.727 9.251C1.474 7.898 1.012 6.589.363 5.742c.187-.121.528-.352.671-.484.33.473.638 1.078.891 1.738h.847v-2.2H.495v-.792h2.222C2.574 2.541 2.046.957.374-.231c.165-.121.473-.451.572-.616C2.211.055 2.882 1.232 3.234 2.42 3.828 1.738 4.697.693 5.071.154l.561.704c-.33.374-1.672 1.881-2.2 2.398.055.253.088.506.11.748h2.123v.792H3.586l.011.385v1.815h1.749v.77H2.189c.132.429.242.869.341 1.32Z"/></symbol><symbol id="i" overflow="visible"><path d="M6.149 5.258c1.309-.88 2.959-2.178 3.74-3.025l.671.638c-.825.847-2.497 2.079-3.795 2.915ZM.759 8.47v-.847h4.895C4.565 5.742 2.673 3.883.484 2.805c.176-.187.429-.517.561-.726 1.529.803 2.893 1.936 4.004 3.212V-.858h.891v7.282c.286.385.539.792.77 1.199h3.531v.847Z"/></symbol><symbol id="j" overflow="visible"><path d="m1.782 8.877-.121-.088c.605-.528 1.276-1.441 1.397-2.189.836-.605 1.441 1.287-1.276 2.277m6.468.099c-.407-.924-.968-1.903-1.419-2.475l.154-.121c.638.462 1.364 1.177 1.936 1.914.231-.044.363.033.429.143ZM1.177 6.138V-.88h.11c.33 0 .605.176.605.264v6.435h7.194V.253c0-.165-.055-.242-.253-.242-.253 0-1.408.088-1.408.088v-.176c.506-.066.792-.154.957-.264.165-.121.22-.308.253-.539C9.68-.77 9.812-.407 9.812.176v5.5c.209.033.396.132.473.209l-.924.704-.385-.451H5.808v2.706c.264.033.374.143.396.286l-1.122.121V6.138H1.969l-.792.363Zm5.588-2.035V1.936H4.147v2.167Zm-3.3.33V.77h.099c.297 0 .583.154.583.22v.627h2.618v-.605h.11c.231 0 .572.165.583.231v2.739c.231.044.396.121.473.209l-.869.671-.396-.429H4.191l-.726.33Z"/></symbol><symbol id="k" overflow="visible"><path d="M1.804 6.16c.396.132.979.154 6.809.473.363-.341.66-.671.869-.957l.704.451c-.583.77-1.837 1.837-2.871 2.563l-.66-.396c.385-.286.803-.616 1.199-.957l-4.73-.231a17 17 0 0 1 2.101 1.903l-.869.33c-.715-.88-1.749-1.738-2.057-1.958-.297-.242-.539-.385-.759-.418.088-.22.22-.638.264-.803M.605 2.849V2.09h4.059C4.169 1.232 3.047.385.517-.198c.154-.176.363-.484.44-.671 2.871.682 4.07 1.727 4.565 2.805C6.391.396 7.876-.506 10.01-.88c.11.22.33.55.506.726C8.525.121 7.084.847 6.292 2.09h4.114v.759H5.797c.044.275.055.55.055.814v.649h3.663v.748H3.179c.187.319.363.66.506 1.001l-.836.22C2.431 5.269 1.727 4.279.935 3.63a4 4 0 0 0 .726-.517c.352.33.715.737 1.034 1.199h2.343v-.638c0-.264-.022-.539-.077-.825Z"/></symbol><symbol id="l" overflow="visible"><path d="M.539 6.809c.374-.66.726-1.529.847-2.079l.66.341c-.121.55-.495 1.386-.891 2.024Zm3.19-2.387V-.88h.759v4.587h1.947c-.077-.88-.407-1.892-1.804-2.563.165-.132.396-.396.506-.561.957.517 1.485 1.166 1.771 1.837.616-.583 1.276-1.276 1.617-1.738l.55.451c-.418.539-1.265 1.375-1.958 1.969.044.209.077.407.088.605h2.134V.066c0-.143-.044-.176-.198-.187a17 17 0 0 0-1.265.011c.11-.209.242-.528.275-.737.77 0 1.276 0 1.584.132.319.132.396.363.396.77v4.367H7.227v1.133h3.212v.726H3.476v-.726h2.981V4.422Zm2.013 4.675c.132-.341.264-.748.374-1.1H2.233V4.719c0-.319-.011-.671-.033-1.023-.693-.352-1.342-.693-1.826-.902l.286-.759 1.463.836C1.958 1.738 1.573.583.682-.33c.165-.11.473-.396.594-.55C2.794.638 3.014 2.992 3.014 4.708v2.53h7.535v.759H7.084c-.121.374-.308.88-.473 1.265Z"/></symbol><symbol id="m" overflow="visible"><path d="M2.596 6.677h5.731v-.902H2.596Zm0 1.485h5.731v-.891H2.596Zm-.792.627V5.148h7.359v3.641Zm.737-5.5C2.255 1.683 1.551.44.385-.319c.187-.121.506-.429.627-.572.726.517 1.298 1.221 1.716 2.09C3.63-.319 5.049-.66 7.271-.66h3.014c.044.231.176.594.308.792A168 168 0 0 0 7.304.121c-.462 0-.902.011-1.298.055v1.518h3.652v.726H6.006v1.232h4.367v.737H.649v-.737h4.532V.319c-.957.242-1.661.759-2.09 1.771.11.341.198.704.275 1.089Z"/></symbol><symbol id="n" overflow="visible"><path d="m5.937 4.235-.57.223a24 24 0 0 0-.123-1.778 1.1 1.1 0 0 1-.285-.131l.516-.4.238.238h.94C6.607.986 6.499.231 6.337.069c-.07-.061-.123-.077-.246-.077-.147 0-.547.031-.793.054v-.13c.215-.04.454-.093.539-.17.092-.07.115-.193.115-.331.27 0 .524.077.693.238.277.262.408 1.07.462 2.688.154.015.246.054.3.115l-.554.455-.27-.293h-.916c.046.423.093.978.116 1.394h.839v-.316h.07c.146 0 .369.108.377.154v1.848c.146.03.277.092.323.154l-.585.454-.262-.292H5.197l.07-.231h1.355V4.235Zm-4.759-.008-.562.224A25 25 0 0 0 .47 2.67c-.1-.03-.208-.084-.285-.13l.523-.4.231.238h.863C1.748.978 1.64.216 1.478.054c-.069-.062-.123-.077-.254-.077-.138 0-.562.038-.8.054L.416-.1C.639-.14.878-.193.97-.262c.093-.077.116-.2.116-.33.262 0 .523.068.685.238.285.262.424 1.078.47 2.687.161.015.254.054.308.116l-.555.446-.27-.285H.902c.054.424.1.978.123 1.394h.809V3.65h.061c.147 0 .362.1.37.154V5.69a.7.7 0 0 1 .323.131l.023.023-.6.462-.262-.3H.285l.07-.223h1.478V4.227Zm3.473 1.987-.3-.393H2.587l.054-.223h.932c-.046-.37-.123-.87-.185-1.24h-.1l-.524.231V.031h.07c.223 0 .361.108.361.146v.54h1.163v-.64h.07c.192 0 .37.108.37.154v3.865c.168.024.253.07.307.124l-.547.43-.23-.292H3.61c.162.354.34.863.462 1.24h.924c.108 0 .185.038.208.123-.215.216-.554.493-.554.493M3.195.947v1.47h1.163V.948Zm0 1.702v1.486h1.163V2.649Z"/></symbol><symbol id="o" overflow="visible"><path d="m6.453 5.26-.393-.51H4.089v1.402c.208.031.27.108.292.224l-.8.092V4.751H.538l.07-.223h2.579C2.626 3.057 1.586 1.563.262.578l.092-.1A8.16 8.16 0 0 1 3.58 4.003v-2.68H1.902l.061-.23H3.58V-.594h.1c.2 0 .409.116.409.185v1.501h1.547q.16-.002.193.124c-.254.254-.662.585-.662.585l-.37-.478H4.09v3.188c.593-1.655 1.617-3.01 2.756-3.765.093.246.285.408.516.423l.016.077C6.19 1.84 4.943 3.111 4.25 4.527h2.726q.164-.001.2.124c-.27.254-.723.608-.723.608"/></symbol><symbol id="p" overflow="visible"><path d="M1.892 9.196C1.639 7.7 1.1 6.237.473 5.291l.165-.11c.495.462.935 1.067 1.309 1.771h.88v-1.87l-.011-.517H.473l.088-.33h2.244C2.695 2.563 2.211.792.429-.693l.143-.154c1.617.968 2.354 2.255 2.695 3.553.594-.649 1.287-1.529 1.496-2.211.792-.55 1.298 1.1-1.43 2.475.088.429.143.858.165 1.265H5.61c.143 0 .253.055.286.176-.363.341-.935.792-.935.792l-.495-.638H3.52l.011.528v1.859H5.28c.154 0 .264.044.286.165-.374.352-.924.77-.924.77l-.517-.616H2.112c.209.429.385.902.539 1.386.231 0 .352.11.396.242Zm4.224-1.419V-.506h.121c.33 0 .594.187.594.275v.737h2.475v-.847h.099c.264 0 .605.187.616.253v7.403c.22.055.396.143.473.231l-.891.704-.407-.473H6.875l-.759.374ZM9.306.836H6.831v6.622h2.475Z"/></symbol><symbol id="q" overflow="visible"><path d="m6.413 5.83-.11-.132c1.188-.693 2.86-1.958 3.476-2.926 1.012-.429 1.111 1.617-3.366 3.058M.572 8.283l.088-.319h5.137C4.796 5.984 2.64 3.872.385 2.53l.099-.154c1.738.836 3.355 2.002 4.642 3.355V-.825h.132c.264 0 .583.165.594.22v6.523q.28.05.33.198l-.528.198c.451.528.847 1.089 1.177 1.65h3.311c.154 0 .275.055.297.176-.407.363-1.067.869-1.067.869l-.583-.726Z"/></symbol><symbol id="r" overflow="visible"><path d="m.451.044.099-.33h9.702c.165 0 .275.055.308.176-.407.363-1.056.858-1.056.858L8.932.044H5.555v4.741h3.828c.154 0 .264.055.297.176-.396.363-1.034.858-1.034.858l-.572-.704H5.555v3.564c.264.044.363.154.385.308l-1.144.132V.044Z"/></symbol><symbol id="s" overflow="visible"><path d="m5.632 9.262-.11-.088c.352-.297.781-.825.935-1.243.759-.451 1.309.99-.825 1.331M.671 7.216.517 7.15c.352-.55.715-1.408.737-2.068.627-.616 1.331.858-.583 2.134m8.965 1.243L9.13 7.81H3.047l-.836.396V5.17l-.022-.858C1.386 3.685.616 3.113.286 2.893l.539-.858a.43.43 0 0 1 .143.352c.473.561.88 1.089 1.199 1.507C2.057 2.211 1.639.572.396-.792L.55-.924C2.695.748 2.915 3.201 2.915 5.181v2.31h7.381c.154 0 .264.055.297.176-.363.341-.957.792-.957.792m-.121-1.551-.506-.638H3.377l.088-.33h3.047a19 19 0 0 0-.066-1.408H4.411l-.748.352V-.825h.121c.297 0 .572.165.572.253v4.785h2.057c-.165-1.232-.594-2.288-1.837-3.146L4.73.891c1.155.616 1.76 1.364 2.09 2.244.572-.528 1.221-1.287 1.419-1.881.704-.473 1.122 1.001-1.342 2.112.088.275.154.55.198.847h2.046V.176c0-.165-.044-.22-.231-.22-.22 0-1.166.066-1.166.066v-.165c.429-.044.671-.121.814-.22.143-.088.187-.242.22-.418.924.077 1.045.385 1.045.88v3.982c.231.044.407.132.484.22l-.924.671-.352-.44H7.139c.055.44.077.913.088 1.408h2.948c.143 0 .253.055.286.176-.363.341-.946.792-.946.792"/></symbol><symbol id="t" overflow="visible"><path d="M5.016 9.24V7.568H1.463v-.836h3.553v-.913c0-.451-.022-.902-.077-1.353H.715v-.847h4.037C4.323 2.145 3.201.77.429-.154c.176-.165.418-.528.517-.737 2.717.924 3.971 2.288 4.521 3.795.902-1.925 2.365-3.168 4.631-3.74.121.231.352.583.55.759-2.343.495-3.85 1.771-4.62 3.696h4.268v.847H5.83q.066.677.066 1.353v.913h3.773v.836H5.896V9.24Z"/></symbol><symbol id="u" overflow="visible"><path d="M7.513 4.356V2.937H5.709v1.419Zm-.297 4.51c.286-.495.605-1.177.737-1.617H5.918c.286.572.528 1.166.726 1.716l-.825.22C5.412 7.876 4.598 6.237 3.63 5.214c.143-.165.385-.462.506-.638q.412.445.792.99V-.891h.781v.803h4.763v.77H8.294v1.507h1.76v.748h-1.76v1.419h1.76v.748h-1.76v1.397h1.991v.748H8.008l.693.308c-.143.44-.484 1.089-.792 1.595Zm.297-3.762H5.709v1.397h1.804Zm0-2.915V.682H5.709v1.507ZM.803 8.228V.968h.759v.858h2.046v6.402Zm.759-.792h1.287V2.629H1.562Z"/></symbol><symbol id="v" overflow="visible"><path d="M4.114 7.832c.638-.792 1.353-1.914 1.661-2.629l.737.44c-.33.704-1.045 1.771-1.694 2.574Zm4.257.979C8.129 3.916 7.348 1.177 3.806-.231c.198-.165.517-.539.627-.715C5.929-.264 6.952.616 7.667 1.793 8.547.913 9.46-.143 9.9-.847l.726.539c-.528.781-1.617 1.936-2.563 2.838.726 1.573 1.034 3.608 1.188 6.248ZM1.551.22c.275.253.682.495 3.872 2.024a6 6 0 0 0-.22.77L2.64 1.815v6.578h-.88v-6.49c0-.506-.429-.858-.66-1.001.132-.154.374-.484.451-.682"/></symbol><symbol id="w" overflow="visible"><path d="M.285.909.616.223c.077.023.139.1.154.193.793.439 1.417.816 1.887 1.093V-.577h.1c.184 0 .4.107.4.184v6.291c.192.031.254.116.27.223l-.77.085V4.081H.524l.069-.216h2.063V1.68C1.656 1.332.701 1 .285.909m6.399 4.019c-.44-.531-1.132-1.263-1.802-1.786v2.756c.177.031.254.116.27.216l-.778.092V.308c0-.462.177-.608.8-.608h.778C7.146-.3 7.43-.24 7.43.008c0 .092-.038.154-.223.215l-.03 1.132h-.1C6.983.878 6.876.377 6.83.262c-.046-.07-.085-.093-.162-.1a12 12 0 0 0-.7-.016H5.25c-.315 0-.37.07-.37.262v2.556c.832.424 1.68 1.017 2.157 1.44.13-.046.246-.023.308.047Z"/></symbol><symbol id="x" overflow="visible"><path d="M3.496 6.437c0-.785.007-1.54-.062-2.256H.385l.062-.223H3.41C3.22 2.24 2.556.73.301-.47l.092-.138C3.026.562 3.735 2.156 3.95 3.95c.223-1.548.847-3.38 2.98-4.558.077.292.262.4.539.43l.015.086C5.198.939 4.381 2.502 4.096 3.958h3.08c.108 0 .193.038.208.123-.292.262-.77.624-.77.624L6.2 4.18H3.973c.062.631.07 1.286.085 1.956.185.023.254.1.277.215Z"/></symbol><symbol id="y" overflow="visible"><path d="M8.82 4.297q0-.677-.264-1.284-.263-.607-.714-1.058t-1.053-.714T5.5.978q-.677 0-1.284.263t-1.058.714-.714 1.058-.263 1.284.263 1.284.714 1.058q.451.45 1.058.714t1.284.263q.688 0 1.29-.263.6-.263 1.052-.714.451-.451.714-1.058t.263-1.284M5.746 1.482q.28.022.537.097.258.075.505.215V6.8q-.247.14-.505.215t-.537.107zm-1.536.312q.247-.14.505-.215t.537-.097v5.64q-.28-.032-.537-.107-.258-.076-.505-.215zm3.072.333q.473.387.752.945.28.559.28 1.225t-.28 1.224q-.28.56-.752.946zm-4.597 2.17q0-.655.279-1.22.28-.563.752-.95v4.34q-.473-.387-.752-.95-.28-.565-.28-1.22"/></symbol><symbol id="z" overflow="visible"><path d="M2.002 9.218C1.793 8.239 1.408 7.304.968 6.71l.154-.121c.396.286.759.682 1.067 1.155h.825c0-.462-.022-.891-.077-1.287H.539l.088-.319h2.266c-.22-1.078-.781-1.936-2.376-2.64l.143-.176c1.562.528 2.321 1.221 2.706 2.09.627-.374 1.353-.968 1.639-1.452.759-.33.968 1.144-1.551 1.672.055.165.11.33.143.506h2.101c.154 0 .253.055.286.165-.341.33-.902.77-.902.77l-.495-.616h-.935c.066.396.088.825.11 1.287h1.716c.132 0 .242.055.264.176-.33.33-.891.759-.891.759l-.484-.616h-1.98c.11.198.209.396.297.616.22-.011.352.088.396.209Zm5.874-7.722V.143H3.223v1.353Zm0 .33H3.223v1.309h4.653ZM6.27 8.107V3.993h.121c.297 0 .583.165.583.231v.627h2.255v-.704h.099c.242 0 .594.154.594.231v3.267c.231.044.407.132.484.22l-.891.682-.396-.44h-2.09l-.759.341ZM9.229 5.17H6.974v2.618h2.255ZM2.508 3.454V-.847h.11c.308 0 .605.165.605.242v.418h4.653v-.627h.11c.242 0 .594.165.605.231v3.597c.198.044.363.132.429.209l-.858.66-.385-.429H3.289l-.781.352Z"/></symbol><symbol id="A" overflow="visible"><path d="m7.084 8.261-.121-.099A9 9 0 0 0 8.415 6.82c-2.365-.099-4.576-.176-5.885-.187 1.155.539 2.497 1.364 3.245 1.969.275-.044.429.044.473.154l-1.177.506C4.51 8.558 3.124 7.293 2.167 6.82c-.121-.044-.495-.088-.495-.088l.396-.979c.11.033.209.121.297.275 2.519.176 4.708.385 6.259.539.209-.275.374-.539.473-.792.869-.506 1.221 1.386-2.013 2.486m2.387-4.807-.528-.671H5.687c.154.55.209 1.144.242 1.771h3.069c.154 0 .264.055.286.176-.374.363-.957.792-.957.792l-.506-.638H3.3c.121.187.242.385.352.594.242-.033.385.055.429.165l-1.045.429C2.64 4.928 1.991 3.828 1.364 3.168l.143-.121c.561.352 1.1.88 1.562 1.507h2.046c-.022-.627-.066-1.21-.22-1.771H.594l.099-.319h4.103C4.334 1.232 3.234.176.473-.704l.11-.198c3.256.847 4.499 1.969 5.005 3.366h.077C6.391.627 7.788-.33 9.878-.858c.088.363.319.594.638.671v.121C8.415.231 6.721.99 5.907 2.464h4.268c.154 0 .264.055.286.176-.374.341-.99.814-.99.814"/></symbol><symbol id="B" overflow="visible"><path d="M9.35 4.928v.484h-7.7v-.484Zm0-2.244v.484h-7.7v-.484Z"/></symbol><symbol id="C" overflow="visible"><path d="m.517 4.4.099-.33h4.147C4.356 2.046 3.278.506.451-.66l.121-.209C3.905.275 5.082 1.892 5.511 4.07h.154C6.05 2.486 7.007.462 9.845-.825c.088.418.341.55.748.594l.011.143C7.612 1.001 6.38 2.64 5.907 4.07h4.345c.165 0 .275.055.308.176-.396.363-1.034.847-1.034.847L8.965 4.4H5.577c.11.715.154 1.485.176 2.31h3.652c.154 0 .275.055.308.176-.407.352-1.034.836-1.034.836l-.55-.693H5.764l.022 1.716c.264.044.363.154.385.319l-1.166.11V7.029H1.298l.088-.319h3.619c-.022-.836-.066-1.595-.176-2.31Z"/></symbol><symbol id="D" overflow="visible"><path d="M6.732 9.295 6.6 9.218c.385-.451.748-1.188.759-1.782.682-.638 1.452.924-.627 1.859m2.904-1.584-.484-.616h-3.63l-.077.033c.209.561.385 1.089.506 1.551.286-.011.374.066.418.187l-1.166.341C5.005 7.854 4.51 5.83 3.751 4.433l.143-.099c.308.363.583.792.825 1.232V-.869h.11c.33 0 .561.176.561.231v.594h4.972c.143 0 .253.055.286.176-.341.33-.902.77-.902.77L9.262.275H7.854v2.024h2.123c.154 0 .264.055.297.176-.341.33-.869.77-.869.77l-.484-.616H7.854V4.51h2.123c.154 0 .264.055.297.176-.341.33-.869.759-.869.759l-.484-.605H7.854v1.925h2.387c.154 0 .253.055.286.176-.341.33-.891.77-.891.77M5.39.275v2.024h1.782V.275Zm0 2.354V4.51h1.782V2.629Zm0 2.211v1.925h1.782V4.84ZM1.529 2.574v5.258h1.342V2.574Zm0-1.408v1.078h1.342v-.825h.099c.242 0 .561.176.572.253v6.039c.22.044.396.121.473.209l-.858.671-.396-.429H1.584l-.704.341V.902h.11c.308 0 .539.176.539.264"/></symbol><symbol id="E" overflow="visible"><path d="M7.898 6.776V5.544H3.19v1.232Zm0 .319H3.19v1.199h4.708ZM2.453 8.613V4.642h.11c.297 0 .627.154.627.231v.352h4.708v-.484h.121c.242 0 .605.165.616.231v3.179c.231.044.407.132.473.22l-.902.693-.418-.451H3.245l-.792.363Zm.484-5.225C2.629 1.947 1.892.286.396-.726l.11-.132a5.84 5.84 0 0 1 2.563 2.387C3.817-.22 4.928-.594 6.952-.594h3.223c.022.275.165.484.429.528v.154C9.746.066 7.81.066 6.985.066c-.396 0-.77.011-1.1.033V2.09H9.24c.154 0 .264.055.297.176-.374.352-.979.825-.979.825l-.528-.682H5.885v1.529h4.323c.154 0 .253.055.286.165-.374.352-.979.825-.979.825l-.528-.671H.506l.099-.319h4.543V.209C4.268.396 3.652.825 3.19 1.76c.198.374.352.759.462 1.133.242-.011.374.077.429.22Z"/></symbol><symbol id="F" overflow="visible"><path d="m4.059 8.635-.143-.066c.638-.88 1.463-2.233 1.661-3.245.88-.726 1.474 1.32-1.518 3.311m-1.023-.154-1.144.121V1.419c0-.22-.055-.286-.396-.462l.495-.979c.099.044.231.176.297.374 1.584 1.155 2.959 2.255 3.773 2.882l-.099.154a117 117 0 0 0-3.355-1.98v6.358l.011.396c.275.044.396.154.418.319m6.534.187-1.199.121C8.305 3.96 8.074 1.364 2.97-.682l.121-.22c2.695.869 4.169 1.936 4.983 3.333.792-.869 1.628-2.134 1.804-3.135.913-.704 1.496 1.507-1.672 3.366.781 1.496.88 3.344.946 5.687.264.033.385.154.418.319"/></symbol><symbol id="G" overflow="visible"><path d="M2.125 2.857v.246h1.479v-.855H1.679l-.555.255V-.17h.077c.208 0 .424.115.424.161v2.033h1.979V-.593h.077c.254 0 .415.116.415.154v2.464H6.06V.608c0-.107-.039-.146-.17-.146-.161 0-.924.062-.924.062V.393c.34-.039.524-.108.64-.185.1-.085.146-.223.169-.37.708.07.785.316.785.701v1.378c.17.031.293.1.347.162l-.662.493-.262-.324H4.096v.855h1.54v-.37h.077c.17 0 .416.108.432.162v2.302c.154.031.277.085.33.147l-.63.485-.286-.316H3.457c.177.185.393.424.532.6.161-.007.261.055.3.162l-.87.193c-.077-.277-.185-.678-.277-.955h-.97l-.555.254v-3.08h.085c.215 0 .423.124.423.17m3.511 2.425v-.855h-3.51v.855Zm-3.51-1.948v.87h3.51v-.87Z"/></symbol><symbol id="H" overflow="visible"><path d="M3.573 5.621V4.127H1.517v1.494Zm-2.557.223V1.548h.085c.223 0 .416.123.416.177v.4h2.056V-.608h.085c.261 0 .43.13.43.177v2.556H6.16v-.477h.077c.17 0 .424.13.431.17v3.71c.162.031.277.093.331.155l-.631.485-.285-.324H1.571l-.555.254Zm3.073-.223H6.16V4.127H4.089Zm-.516-3.272H1.517v1.547h2.056Zm.516 0v1.547H6.16V2.35Z"/></symbol><symbol id="I" overflow="visible"><path d="M3.352 4.297h.752V.752h3.544V0H3.352z"/></symbol><symbol id="J" overflow="visible"><path d="m.878 5.706.07-.224H5.22C2.064 2.864.562 1.68.7.762.816.008 1.563-.23 3.149-.23h1.956c1.54 0 2.195.108 2.195.424 0 .123-.085.161-.347.238l.039 1.44-.1.015C6.744 1.194 6.63.724 6.444.47c-.093-.116-.2-.193-1.27-.193H3.08c-1.24 0-1.71.154-1.794.585-.093.578 1.263 1.864 4.566 4.459.246.007.354.046.439.1l-.593.562-.285-.277Z"/></symbol><symbol id="K" overflow="visible"><path d="M7.051 7.733h2.156V5.005H7.051Zm-.759.726v-4.18h3.718v4.18ZM4.4 8.195v-.704H2.211v.704ZM.473 4.675l.077-.682c1.034.055 2.42.154 3.85.264v-.682h.748v.748l.605.044.011.627-.616-.044v3.245h.539v.649H.649v-.649h.814V4.73ZM4.4 6.919v-.748H2.211v.748Zm0-1.331v-.682l-2.189-.132v.814ZM.451.033v-.704h10.131v.704H5.907v.968h3.3v.671h-3.3v.924h3.839v.671H1.254v-.671h3.817v-.924H1.749v-.671h3.322V.033Z"/></symbol><symbol id="L" overflow="visible"><path d="M5.027 9.207C4.994 7.513 5.06 2.134.473-.187c.253-.176.517-.44.671-.649C3.839.605 5.005 3.069 5.522 5.28 6.061 3.223 7.249.506 10.01-.792c.132.231.374.517.605.693C6.721 1.65 6.039 6.259 5.874 7.579c.055.66.066 1.221.077 1.628Z"/></symbol><symbol id="M" overflow="visible"><path d="M2.574 1.463C2.002 1.463 1.276.869.539.055l.616-.748C1.672.033 2.189.682 2.552.682c.242 0 .594-.374 1.034-.649.748-.473 1.639-.594 2.981-.594 1.067 0 2.959.055 3.773.11.011.242.154.682.242.902C9.526.33 7.887.242 6.589.242c-1.221 0-2.134.077-2.827.528l-.286.187c2.266 1.408 4.73 3.707 6.072 5.742l-.616.407-.165-.044H1.1v-.814h7.051C6.897 4.576 4.708 2.596 2.717 1.441ZM4.565 8.91c.429-.561.946-1.364 1.155-1.848l.781.44c-.242.462-.77 1.221-1.199 1.793Z"/></symbol><symbol id="N" overflow="visible"><path d="M6.303.715C7.601.231 8.91-.363 9.68-.836l.759.55C9.581.165 8.173.781 6.875 1.232Zm-2.332.583C3.201.759 1.683.121.495-.231c.176-.165.418-.451.539-.627C2.222-.473 3.729.165 4.708.781Zm3.575 7.931V7.953H3.443v1.276h-.814V7.953H.913v-.77h1.716V2.255H.594v-.77h9.812v.77H8.371v4.928h1.771v.77H8.371v1.276ZM3.443 2.255v1.21h4.103v-1.21Zm0 4.928h4.103v-1.1H3.443Zm0-1.815h4.103V4.169H3.443Z"/></symbol><symbol id="O" overflow="visible"><path d="m5.181 9.097-.506-.616H.495l.088-.33h1.045V4.587l-1.166-.11.33-.858c.11.022.209.099.275.242 1.21.22 2.255.44 3.146.627v-.979h.099c.352 0 .572.143.572.209v.913l1.243.275-.033.209-1.21-.154v3.19h.924c.154 0 .242.055.275.176-.341.33-.902.77-.902.77M2.299 4.653v.979h1.914v-.759Zm6.688.22H6.963v2.97h2.024ZM6.281 8.525V3.608h.11c.352 0 .572.187.572.231v.715h2.024v-.583h.11c.231 0 .572.165.583.22v3.531c.22.044.396.121.473.209l-.869.682-.407-.44H7.106Zm-3.982-.374h1.914v-.946H2.299Zm0-2.189v.913h1.914v-.913Zm6.039-3.751-.484-.616H5.863V2.86H9.46c.154 0 .264.055.297.176-.363.341-.946.781-.946.781l-.506-.627H1.54l.088-.33h3.509V1.595H1.936l.088-.33h3.113V-.11H.704l.099-.33h9.284c.154 0 .264.055.297.176-.374.341-.968.803-.968.803L8.899-.11H5.863v1.375h3.124c.143 0 .253.055.286.176-.352.33-.935.77-.935.77"/></symbol><symbol id="P" overflow="visible"><path d="M5.588 8.558c.275.033.363.143.385.308l-1.166.121C4.796 5.621 4.829 2.057.451-.66l.154-.187c3.916 2.035 4.708 4.818 4.906 7.48.341-3.278 1.331-5.841 4.29-7.48.121.418.396.572.792.616l.022.121C6.809 1.65 5.83 4.51 5.588 8.558"/></symbol><symbol id="Q" overflow="visible"><path d="m6.6 1.419-.066-.176C7.964.649 8.954-.066 9.471-.682c.77-.682 1.98 1.1-2.871 2.101m-2.717.165C3.245.847 1.848-.165.572-.715L.66-.869C2.09-.484 3.575.286 4.411.924c.297-.044.451-.011.517.11ZM7.26 9.196v-1.65H3.773v1.232c.275.044.374.154.396.308l-1.111.11v-1.65H.715l.099-.33h2.244V2.211H.462l.099-.33h9.713c.165 0 .264.055.297.176-.385.352-1.023.836-1.023.836l-.55-.682H7.986v5.005h2.057c.154 0 .264.055.286.176-.363.341-.968.803-.968.803l-.528-.649h-.847v1.232c.275.044.374.154.396.308ZM3.773 2.211v1.474H7.26V2.211Zm0 5.005H7.26V5.819H3.773Zm0-1.716H7.26V4.015H3.773Z"/></symbol><symbol id="R" overflow="visible"><path d="M1.1-.22h8.8v8.8H1.1Zm8.36 8.36V.22H1.54v7.92Z"/></symbol><symbol id="S" overflow="visible"><path d="m3.982 9.196-.121-.088c.561-.517 1.21-1.397 1.331-2.112.814-.572 1.408 1.232-1.21 2.2M2.387 1.65C2.123 1.65 1.023.638.363.154l.66-.847c.088.066.11.154.066.253.341.528.935 1.287 1.166 1.628.11.143.22.176.363.011C3.641-.121 4.686-.484 6.776-.484h3.179c.044.33.242.583.583.638v.154C9.262.242 8.261.253 7.029.253c-2.046 0-3.267.198-4.257 1.243l-.044.033C5.346 2.64 7.711 4.4 9.119 6.171c.297 0 .407.022.506.121l-.803.759-.539-.462H.957l.099-.33h7.117C6.908 4.576 4.598 2.783 2.442 1.65Z"/></symbol><symbol id="T" overflow="visible"><path d="m8.349 8.8-.506-.638H1.639l.088-.319h7.282c.154 0 .264.055.297.176-.374.341-.957.781-.957.781m1.232-2.783-.517-.649H.55l.099-.33h2.772C3.388 2.662 3.3.737.561-.693L.704-.88C3.949.473 4.125 2.453 4.202 5.038h2.552V-.858h.11c.385 0 .616.176.616.231v5.665h2.772c.154 0 .264.055.297.176-.374.341-.968.803-.968.803"/></symbol><symbol id="U" overflow="visible"><path d="M5.436 9.142q.311-.237.569-.462.193-.172.322-.301-.021-.097-.107-.15-.075-.033-.247-.033h-1V2.148q.14.033 1.043.205l.021-.215q-1.01-.28-1.063-.29V-.698q0-.075-.247-.183-.119-.032-.215-.032h-.13v2.589Q2.333 1.117.925.763.902.677.827.602.698.505.655.505q-.247.806-.247.827.71.097 1.15.172v6.692H.516q0 .022-.086.333h4.5zm4.436-.881.741-.591q-.118-.118-.204-.14-.161-.043-.236-.043V.097q0-.076-.269-.172-.107-.032-.236-.032h-.075v.805q0 .011-.011.011H7.047v-.73q0-.065-.226-.172-.129-.043-.258-.043h-.096v8.422q.698-.323.73-.323H9.54zm-7.734-.065V6.381h2.245v1.815zm4.909-.676V1.042h2.535q.01 0 .01.01V7.51q0 .01-.01.01zm-4.91-1.461V4.07h2.246V6.06zm0-2.32V1.6l2.246.419v1.718z"/></symbol><symbol id="V" overflow="visible"><path d="M2.464 8.349V5.06L.341 4.334l.198-.264 1.925.66V.561c0-.935.495-1.133 1.892-1.133H6.71c3.19 0 3.806.077 3.806.539 0 .154-.11.242-.44.341L10.043 2.2H9.9C9.691 1.199 9.537.627 9.416.374 9.328.253 9.24.187 8.987.154 8.657.121 7.865.11 6.743.11H4.334c-.968 0-1.155.154-1.155.594v4.268l2.211.748V1.628h.132c.286 0 .594.154.594.253v4.092l2.574.88c-.066-2.409-.22-3.696-.473-3.971-.099-.077-.176-.099-.363-.099-.198 0-.781.044-1.122.077v-.198c.319-.044.649-.132.781-.242.11-.088.154-.264.154-.462.385 0 .748.088 1.012.341.418.407.616 1.727.682 4.444.22.022.352.077.429.165l-.803.66-.385-.418-.066-.022-2.42-.825v2.464c.275.044.363.165.396.319l-1.122.11V6.05l-2.211-.748v2.607c.253.044.374.165.396.308Z"/></symbol><symbol id="W" overflow="visible"><path d="M8.474-.73v.15C7.084.043 6.16 1.407 6.16 3.343s.924 3.3 2.314 3.925v.15H5.456v-8.15Z"/></symbol><symbol id="X" overflow="visible"><path d="M.326 1.038.704.255C.792.282.862.37.88.475c.906.502 1.62.933 2.156 1.25V-.66h.114c.212 0 .458.123.458.211v7.19c.22.035.29.132.308.255l-.88.097V4.664H.598l.08-.246h2.358v-2.5c-1.144-.396-2.235-.774-2.71-.88m7.312 4.594C7.137 5.025 6.345 4.189 5.58 3.59v3.15c.203.036.29.133.308.247l-.889.106V.352c0-.528.203-.695.916-.695h.888c1.364 0 1.69.07 1.69.352 0 .105-.044.176-.255.246L8.202 1.55h-.115C7.982 1.003 7.858.43 7.806.299 7.753.22 7.709.194 7.62.185A14 14 0 0 0 6.82.167h-.818c-.361 0-.423.08-.423.3v2.921c.95.484 1.919 1.162 2.464 1.646.15-.053.282-.027.352.052Z"/></symbol><symbol id="Y" overflow="visible"><path d="M3.995 7.357c0-.898.009-1.76-.07-2.579H.44l.07-.255h3.388C3.678 2.561 2.922.836.343-.537L.45-.695c3.01 1.337 3.819 3.159 4.065 5.21.256-1.77.968-3.864 3.406-5.21.088.334.3.457.616.493l.018.096C5.94 1.074 5.007 2.86 4.682 4.524h3.52c.123 0 .22.043.237.14-.334.3-.88.713-.88.713l-.475-.599H4.541c.07.722.079 1.47.097 2.236.21.026.29.114.316.246Z"/></symbol><symbol id="Z" overflow="visible"><path d="M2.64 3.344c0-1.936-.924-3.3-2.314-3.925v-.15h3.018v8.15H.326v-.15C1.716 6.644 2.64 5.28 2.64 3.344"/></symbol><symbol id="aa" overflow="visible"><path d="M.924-.14C3.23.448 4.453 2.032 4.453 3.95c0 1.61-.792 2.587-2.015 2.587-1.118 0-1.972-.774-1.972-2.032 0-1.197.784-1.936 1.857-1.936.546 0 .995.193 1.311.528C3.388 1.698 2.482.66.862.088Zm2.763 3.554q-.475-.501-1.109-.501c-.8 0-1.381.616-1.381 1.663 0 1.109.563 1.69 1.232 1.69.73 0 1.285-.748 1.285-2.288 0-.194-.01-.388-.027-.564"/></symbol><symbol id="ab" overflow="visible"><path d="M2.165-.132c1.373 0 2.253.818 2.253 2.068s-.81 1.918-2.068 1.918c-.396 0-.757-.052-1.11-.202l.142 2.138H4.25v.616H1.1L.898 3.38l.22-.088q.461.211 1.03.211c.906 0 1.495-.51 1.495-1.601C3.643.774 3.071.14 2.06.14c-.281 0-.484.044-.686.132L1.162.95c-.07.317-.185.432-.405.432a.38.38 0 0 1-.37-.256c.159-.81.827-1.258 1.778-1.258"/></symbol><symbol id="ac" overflow="visible"><path d="m.44 1.522-.097-.15C1.126.819 1.487.283 1.77-.298c.123-.264.237-.37.422-.37.211 0 .361.141.361.396 0 .194-.053.361-.211.59-.29.422-.845.871-1.901 1.205"/></symbol><symbol id="ad" overflow="visible"><path d="M2.543-.132c1.109 0 1.936.871 1.936 2.077 0 1.153-.625 1.927-1.69 1.927-.58 0-1.073-.229-1.495-.678.228 1.55 1.25 2.772 3.018 3.15l-.044.194C1.945 6.266.493 4.48.493 2.438c0-1.567.774-2.57 2.05-2.57M1.267 2.913c.414.431.827.598 1.285.598.74 0 1.197-.563 1.197-1.619C3.749.766 3.22.141 2.552.141c-.818 0-1.302.871-1.302 2.376Z"/></symbol><symbol id="ae" overflow="visible"><path d="M2.429 3.265v.281h1.69V2.57h-2.2l-.634.29V-.194h.088c.237 0 .484.132.484.185v2.323h2.261V-.678h.088c.29 0 .476.132.476.176v2.816h2.244V.695c0-.123-.044-.167-.194-.167-.185 0-1.056.07-1.056.07v-.15c.387-.043.598-.122.73-.21.115-.097.168-.256.194-.423.81.08.898.361.898.801v1.575c.193.035.334.115.396.185l-.757.563-.3-.37H4.683v.977h1.76v-.422h.088c.193 0 .475.123.492.185V5.94c.176.035.317.097.379.167l-.722.555-.325-.361H3.95c.203.211.449.484.607.686.185-.009.3.062.344.185l-.995.22c-.088-.317-.211-.774-.317-1.091H2.482l-.634.29v-3.52h.097c.246 0 .484.141.484.194m4.013 2.772V5.06H2.429v.977ZM2.429 3.81v.995h4.013V3.81Z"/></symbol><symbol id="af" overflow="visible"><path d="M4.083 6.424V4.717h-2.35v1.707Zm-2.921.255V1.77h.096c.256 0 .476.14.476.202v.458h2.35V-.695h.096c.3 0 .493.15.493.202V2.43H7.04v-.546h.088c.194 0 .484.15.493.194v4.241c.185.036.317.106.378.176l-.721.555-.326-.37H1.795l-.633.29Zm3.51-.255H7.04V4.717H4.673Zm-.589-3.74h-2.35v1.769h2.35Zm.59 0v1.769H7.04V2.684Z"/></symbol><symbol id="ag" overflow="visible"><path d="M1.355 0h.643l2.296 6.01v.396H.484V5.79H3.89L1.285.062Z"/></symbol><symbol id="ah" overflow="visible"><path d="m1.003 6.52.08-.254h4.883C2.358 3.274.642 1.918.801.87.933.01 1.786-.264 3.599-.264h2.235c1.76 0 2.508.123 2.508.484 0 .14-.096.185-.396.273l.044 1.645-.114.018c-.167-.792-.3-1.329-.51-1.62-.106-.131-.23-.22-1.452-.22H3.52c-1.417 0-1.954.177-2.05.67-.106.66 1.443 2.13 5.218 5.095.282.009.405.053.502.114l-.678.643-.326-.317Z"/></symbol><symbol id="ai" overflow="visible"><path d="M2.253-.132c1.232 0 2.085.704 2.085 1.786 0 .924-.519 1.567-1.654 1.725.977.22 1.47.863 1.47 1.61 0 .925-.652 1.55-1.778 1.55-.836 0-1.62-.353-1.769-1.224.053-.15.185-.22.335-.22.22 0 .352.097.43.396l.203.678c.22.07.423.097.634.097.765 0 1.197-.484 1.197-1.303 0-.941-.608-1.452-1.461-1.452h-.352v-.308h.396c1.056 0 1.601-.554 1.601-1.522C3.59.748 3.027.14 2.05.14c-.246 0-.457.044-.65.114l-.212.687c-.08.325-.202.448-.414.448-.167 0-.299-.096-.36-.272.176-.819.836-1.25 1.839-1.25"/></symbol><symbol id="aj" overflow="visible"><path d="m.36.035.08-.264h7.762c.132 0 .22.044.246.141-.326.29-.845.686-.845.686L7.146.035H4.444v3.793h3.062c.124 0 .212.044.238.14-.317.291-.827.687-.827.687l-.458-.563H4.444v2.851c.211.035.29.123.308.247l-.915.105V.035Z"/></symbol><symbol id="ak" overflow="visible"><path d="M1.434-.132c.308 0 .546.255.546.537a.537.537 0 0 1-.546.545.525.525 0 0 1-.536-.545c0-.282.22-.537.536-.537"/></symbol><symbol id="al" overflow="visible"><path d="M1.694 0h.803l2.871 7.513v.495H.605v-.77h4.257L1.606.077Z"/></symbol><symbol id="am" overflow="visible"><path d="M3.179-.165c1.386 0 2.42 1.089 2.42 2.596 0 1.441-.781 2.409-2.112 2.409-.726 0-1.342-.286-1.87-.847.286 1.936 1.562 3.465 3.773 3.938l-.055.242C2.431 7.832.616 5.599.616 3.047c0-1.958.968-3.212 2.563-3.212M1.584 3.641c.517.539 1.034.748 1.606.748.924 0 1.496-.704 1.496-2.024C4.686.957 4.026.176 3.19.176c-1.023 0-1.628 1.089-1.628 2.97Z"/></symbol></defs><defs><pattern id="an" width="27.4" height="27.4" patternUnits="userSpaceOnUse"/><pattern id="ao" width="27.4" height="27.4" patternUnits="userSpaceOnUse"><g fill="none" stroke="#000" stroke-width=".4"><path d="M0 8.004h17.4M0 10.44h17.4" class="typst-shape"/></g></pattern></defs><defs><pattern xlink:href="#an" id="e" href="#an"/><pattern xlink:href="#ao" id="f" href="#ao"/></defs></svg>