<svg xmlns="http://www.w3.org/2000/svg" xmlns:xlink="http://www.w3.org/1999/xlink" width="793.701" height="1122.52" class="typst-doc" viewBox="0 0 595.276 841.89"><path fill="#fff" d="M0 0v841.89h595.276V0Z" class="typst-shape"/><g class="typst-group"><g class="typst-text" transform="matrix(1 0 0 -1 85.04 165.543)"><use xlink:href="#a"/><use xlink:href="#b" x="72"/><use xlink:href="#c" x="144"/><use xlink:href="#d" x="216"/><use xlink:href="#e" x="288"/></g><g class="typst-text" transform="matrix(1 0 0 -1 96.378 278.93)"><use xlink:href="#f"/><use xlink:href="#g" x="36"/><use xlink:href="#h" x="72"/><use xlink:href="#i" x="108"/><use xlink:href="#j" x="144"/></g><g class="typst-group"><g class="typst-text" transform="matrix(1 0 0 -1 220.225 728.504)"><use xlink:href="#k"/><use xlink:href="#l" x="9.226"/><use xlink:href="#l" x="14.462"/><use xlink:href="#m" x="19.6"/><use xlink:href="#n" x="28.532"/><use xlink:href="#o" x="35.154"/><use xlink:href="#p" x="39.732"/><use xlink:href="#p" x="43.512"/><use xlink:href="#l" x="48.44"/><use xlink:href="#l" x="53.676"/><use xlink:href="#q" x="58.814"/><use xlink:href="#r" x="66.626"/><use xlink:href="#k" x="74.396"/><use xlink:href="#s" x="83.678"/><use xlink:href="#t" x="87.962"/><use xlink:href="#u" x="95.886"/><use xlink:href="#l" x="100.534"/><use xlink:href="#k" x="105.672"/><use xlink:href="#v" x="114.898"/><use xlink:href="#w" x="124.04"/><use xlink:href="#s" x="132.594"/><use xlink:href="#u" x="137.172"/><use xlink:href="#x" x="141.82"/><use xlink:href="#p" x="149.898"/></g><a xlink:href="https://tt24h.github.io/" transform="translate(220.225 711.298)"><path fill="transparent" d="M0 0h154.826v24.206H0z"/></a></g></g><use xlink:href="#y" class="typst-text" transform="matrix(1 0 0 -1 295.047 849.909)"/><defs><symbol id="a" overflow="visible"><path d="M59.544 57.96c-2.232-3.384-4.896-6.768-7.92-10.224-2.304 2.232-5.976 5.04-5.976 5.04l-3.456-4.248h-9.288v9.36c1.584.288 2.232.864 2.376 1.872l-7.056.648v-11.88H9.288l.576-2.16h18.36V34.344H3.24l.648-2.16h31.824a145 145 0 0 0-7.344-5.832l-5.76.648v-4.752C16.056 17.784 9.072 13.752 1.944 10.44l.648-1.152c6.984 2.664 13.68 5.904 20.016 9.576V1.44c0-4.464 1.872-5.472 9.504-5.472h12.744c17.28 0 20.088.72 20.088 3.168 0 1.008-.576 1.512-2.448 2.016l-.144 9.504h-.936c-1.008-4.536-1.872-7.848-2.52-9.144-.432-.72-.792-1.008-2.16-1.08C55.08.288 50.76.216 45.072.216H32.4c-4.608 0-5.112.432-5.112 2.016V10.8c10.944 2.592 22.392 7.056 29.448 10.728 1.872-.504 3.168-.36 3.672.216l-6.192 4.608c-5.544-4.392-16.848-10.368-26.928-13.968v9.288c5.328 3.312 10.296 6.84 14.832 10.512h24.696c1.008 0 1.728.36 1.944 1.152-2.52 2.304-6.48 5.328-6.48 5.328l-3.456-4.32H44.712c7.344 6.192 13.536 12.672 18.216 18.792 1.8-.648 2.52-.504 3.168.288Zm-26.64-11.592h17.064l.576.072q-5.508-6.156-12.312-12.096h-5.328Z"/></symbol><symbol id="b" overflow="visible"><path d="m10.584 54.216.648-2.088H52.2c-3.672-3.672-9.216-8.496-14.328-11.808l-3.96.432v-11.88H3.24l.648-2.16h30.024V2.088c0-1.368-.504-1.872-2.232-1.872-2.016 0-12.744.792-12.744.792V-.144C23.4-.648 25.92-1.296 27.36-2.16c1.368-.72 1.944-1.872 2.232-3.456 8.136.792 9.144 3.384 9.144 7.272v25.056h28.296c1.008 0 1.8.36 1.944 1.152-2.736 2.448-7.056 5.76-7.056 5.76l-3.816-4.752H38.736v9.216c1.656.216 2.304.864 2.52 1.872l-1.368.144c7.056 3.024 14.472 7.776 19.44 11.304 1.584.144 2.52.288 3.168.792l-5.76 5.256-3.456-3.24Z"/></symbol><symbol id="c" overflow="visible"><path d="m31.176 60.336-.792-.504c2.232-2.448 4.392-6.552 4.608-9.864 4.608-3.744 9.288 5.904-3.816 10.368M7.2 59.184l-.864-.576c3.384-3.96 7.92-10.44 9.288-15.12 5.184-3.6 8.712 7.056-8.424 15.696m55.44-6.336L59.256 48.6h-9.288c2.664 2.664 5.4 5.904 7.056 8.424 1.584-.072 2.448.504 2.736 1.296l-7.632 2.16c-1.008-3.528-2.736-8.28-4.392-11.88H22.392l.576-2.16H40.68l-.936-6.984h-5.76l-4.968 2.304V4.032h.792c2.016 0 3.816 1.152 3.816 1.656V8.64H56.52V4.536h.72c1.584 0 3.816 1.152 3.888 1.656v30.312c1.44.288 2.592.792 3.024 1.368l-5.688 4.464-2.664-2.88H42.84a126 126 0 0 1 3.456 6.984h20.736c1.008 0 1.656.36 1.872 1.152-2.376 2.304-6.264 5.256-6.264 5.256M33.624 10.8v7.56H56.52V10.8Zm0 9.72v7.416H56.52V20.52Zm0 9.504v7.272H56.52v-7.272ZM13.392 9.072C10.368 6.912 5.688 2.736 2.52.504l4.248-5.4c.504.504.648 1.08.432 1.656C9.504.216 13.536 5.256 15.192 7.488c.72.936 1.368 1.152 2.304 0 6.192-8.784 12.96-10.944 27.288-10.944h21.024c.288 2.088 1.44 3.528 3.6 3.96v.936c-8.352-.36-15.048-.288-23.184-.288-13.968-.072-21.528 1.008-27.648 8.28-.36.36-.576.576-.864.648v22.968c2.016.36 3.024.864 3.456 1.368l-6.12 5.112-2.664-3.672H3.24l.432-2.088h9.72Z"/></symbol><symbol id="d" overflow="visible"><path d="m62.856 25.056-3.24-3.816H22.248l.576-2.16h44.424c1.008 0 1.656.36 1.872 1.152-2.376 2.088-6.264 4.824-6.264 4.824M27.72 14.4h-1.224c-.072-4.104-2.52-8.568-4.68-10.296-1.368-1.008-2.088-2.52-1.296-3.816 1.008-1.512 3.6-1.008 4.896.36 1.944 2.16 3.816 6.984 2.304 13.752m30.168.72-.864-.576C60.48 11.16 64.44 5.328 64.872.72c4.752-3.816 8.712 7.344-6.984 14.4m-16.056 3.024-.792-.504c2.736-2.808 5.616-7.632 5.76-11.448 4.248-3.816 8.568 6.048-4.968 11.952m-2.88-2.952-6.336.72V.72c0-3.24.936-4.248 6.408-4.248h7.704c11.088 0 13.176.792 13.176 2.808 0 .864-.432 1.296-1.872 1.872l-.216 7.56h-.936c-.648-3.384-1.368-6.336-1.872-7.416-.36-.576-.576-.72-1.368-.72-.864-.144-3.528-.144-6.768-.144h-7.128c-2.592 0-2.88.216-2.88 1.152v11.952c1.296.144 2.016.864 2.088 1.656M24.12 56.736l-6.624 3.528c-2.88-5.832-9-14.328-14.904-19.944l.864-.864c7.128 4.536 14.04 11.52 17.928 16.632 1.656-.432 2.232-.072 2.736.648M63 56.52l-3.384-4.248H47.304l.72 4.824c1.512 0 2.376.504 2.664 1.368l-7.056 1.944-1.08-8.136H22.104l.576-2.16h19.584l-1.08-7.056h-9.792l-4.968 2.232V23.976h.648c2.16 0 3.528 1.08 3.528 1.368v1.8h28.872V24.84h.72c2.016 0 3.6 1.008 3.6 1.368V40.68c1.44.288 2.088.648 2.592 1.152l-4.968 3.816-2.088-2.592H45.936l1.08 7.056h20.52c.936 0 1.584.36 1.8 1.152C66.96 53.568 63 56.52 63 56.52M48.672 29.232h-6.84v11.736h6.84Zm4.032 0v11.736h6.768V29.232Zm-14.832 0H30.6v11.736h7.272ZM19.224 32.4l-2.736 1.008c2.016 2.88 3.672 5.688 5.04 8.208 1.728-.144 2.376.144 2.808.936l-7.128 3.168c-2.736-7.776-8.496-19.08-14.976-26.568l.864-.792c3.384 2.736 6.48 6.12 9.288 9.504V-5.688h.936c1.8 0 3.672 1.224 3.744 1.656v35.064c1.152.216 1.872.72 2.16 1.368"/></symbol><symbol id="e" overflow="visible"><path d="m2.592 4.968 2.952-6.624c.72.216 1.44.864 1.656 1.728 9.792 3.888 17.136 7.272 22.32 9.864l-.216 1.008C18.576 8.208 7.488 5.76 2.592 4.968m21.672 51.408L17.28 59.76c-2.16-5.4-8.352-15.552-13.104-19.728-.504-.36-1.944-.648-1.944-.648l2.664-6.624a3.5 3.5 0 0 1 1.44 1.152 193 193 0 0 1 12.168 3.168c-4.32-5.904-9.576-12.096-13.968-15.552-.576-.36-2.088-.72-2.088-.72l2.52-6.624c.576.216 1.08.648 1.584 1.296 8.856 2.52 16.704 5.328 20.952 6.84l-.216 1.08c-7.416-1.08-14.688-2.088-19.8-2.664 8.064 6.336 16.92 15.624 21.456 21.96 1.44-.432 2.448 0 2.808.648l-6.48 4.32c-1.152-2.304-2.952-5.184-5.112-8.28l-13.536-.432C12.096 43.488 18.216 50.4 21.6 55.368c1.44-.216 2.376.36 2.664 1.008m34.848-30.888-3.24-4.176H30.888l.576-2.088h13.464V.72H24.912l.576-2.16h42.264c1.008 0 1.728.36 1.944 1.152-2.448 2.232-6.192 5.112-6.192 5.112L60.192.72H49.68v18.504h13.608c1.08 0 1.728.36 1.944 1.152-2.376 2.16-6.12 5.112-6.12 5.112M47.52 37.44c6.336-3.168 14.4-8.352 18.144-12.024 6.12-1.512 6.12 8.928-16.56 13.392C53.712 42.84 57.6 47.16 60.552 51.48c1.8 0 2.664.144 3.168.864l-5.328 4.896-3.456-3.096H29.304l.648-2.088h24.552c-6.264-9.936-17.928-20.232-29.52-26.64l.792-1.152c8.064 3.384 15.48 7.992 21.744 13.176"/></symbol><symbol id="f" overflow="visible"><path d="M3.168 27.108v-28.8h2.736v2.736h24.048v-2.448h2.772v28.512ZM5.904 3.672v20.844h6.768c-.18-8.856-.828-13.464-6.336-16.056.576-.468 1.368-1.476 1.656-2.124 6.228 3.06 7.128 8.424 7.308 18.18h5.04V13.212c0-2.808.612-3.96 3.132-3.96h3.924c.828 0 1.764.036 2.196.18-.072.648-.144 1.584-.216 2.304-.468-.144-1.476-.18-2.052-.18h-3.528c-.756 0-.9.432-.9 1.584v11.376h7.056V3.672Z"/></symbol><symbol id="g" overflow="visible"><path d="M23.508 20.016v-8.568h-5.076v8.568Zm2.7 0h4.968v-8.568h-4.968Zm-2.7 10.152v-7.524h-7.632V6.624h2.556V8.82h5.076V-2.808h2.7V8.82h4.968V6.84h2.628v15.804h-7.596v7.524Zm-10.296-.432c-2.736-1.188-7.488-2.268-11.556-2.916.324-.576.684-1.476.792-2.088 1.584.216 3.312.468 5.004.828v-5.472H1.656v-2.52h5.4c-1.44-4.14-3.96-8.82-6.228-11.376.432-.648 1.08-1.728 1.332-2.484C4.032 5.94 5.976 9.54 7.452 13.212v-16.02h2.628v16.632c1.188-1.764 2.664-4.032 3.24-5.148l1.62 2.088c-.684.972-3.852 4.896-4.86 6.012v.792h4.608v2.52H10.08V26.1c1.764.432 3.384.936 4.752 1.476Z"/></symbol><symbol id="h" overflow="visible"><path d="M13.284 14.472h15.084v-3.384H13.284Zm0 5.4h15.084v-3.348H13.284ZM25.164 5.94c2.16-2.34 5.004-5.544 6.372-7.452L33.84-.144c-1.476 1.872-4.392 5.004-6.552 7.236ZM13.356 7.164C11.736 4.752 9.36 2.016 7.2.144c.684-.36 1.8-1.08 2.304-1.476C11.52.612 14.04 3.672 15.912 6.3ZM4.716 28.26V18.036c0-5.544-.288-13.284-3.456-18.792.648-.252 1.8-.972 2.304-1.404C6.912 3.636 7.38 12.168 7.38 18.036v7.704h26.568v2.52Zm14.364-2.916c-.288-.936-.828-2.232-1.368-3.348H10.62V8.928h8.856V.144c0-.432-.144-.612-.72-.612-.54-.036-2.376-.036-4.5.036.324-.72.72-1.692.828-2.412 2.772 0 4.536 0 5.652.396 1.044.396 1.368 1.152 1.368 2.556v8.82h9v13.068H20.628c.54.9 1.08 1.908 1.584 2.88Z"/></symbol><symbol id="i" overflow="visible"><path d="M15.228 29.628c1.08-1.764 2.232-4.176 2.664-5.652l2.988.972c-.504 1.476-1.764 3.816-2.844 5.544ZM1.8 23.904V21.24h5.616c2.124-5.472 4.968-10.188 8.676-14.04-3.96-3.312-8.82-5.76-14.796-7.452C1.836-.9 2.7-2.16 2.988-2.808 9-.864 14.004 1.728 18.072 5.256c4.068-3.6 8.964-6.264 14.868-7.884.468.756 1.26 1.908 1.872 2.484-5.76 1.44-10.656 3.996-14.652 7.38 3.636 3.708 6.408 8.316 8.496 14.004h5.688v2.664ZM18.144 9.108c-3.384 3.42-6.048 7.524-7.92 12.132h15.372c-1.8-4.86-4.284-8.856-7.452-12.132"/></symbol><symbol id="j" overflow="visible"><path d="M9.072-2.844c.828.54 2.16 1.008 12.204 4.212-.144.576-.36 1.62-.432 2.376L12.06 1.116v7.92c2.16 1.476 4.104 3.096 5.652 4.824C20.52 6.3 25.56.828 33.012-1.656c.396.72 1.188 1.764 1.8 2.34-3.564 1.044-6.624 2.808-9.108 5.148 2.268 1.404 4.896 3.276 6.984 5.04l-2.232 1.584c-1.584-1.548-4.104-3.492-6.264-5.004a22.9 22.9 0 0 0-3.816 6.408h13.248v2.34H19.296v3.204h11.592v2.232H19.296v3.06h13.176v2.34H19.296v3.204H16.56v-3.204H3.78v-2.34h12.78v-3.06H5.616v-2.232H16.56V16.2H2.34v-2.34h11.952C10.872 10.8 5.76 8.028 1.296 6.588c.576-.54 1.368-1.548 1.8-2.196 2.016.72 4.14 1.728 6.192 2.916V1.98c0-1.44-.792-2.052-1.404-2.376.432-.576 1.008-1.8 1.188-2.448"/></symbol><symbol id="k" overflow="visible"><path d="M6.51 0h2.296v.392L7.728.504c-.014.77-.028 1.918-.028 2.702v1.568c0 1.918-.742 2.66-1.96 2.66-.952 0-1.89-.462-2.828-1.54v3.08l.042 2.17-.21.126-2.184-.42v-.378l1.232-.056v-7.21L1.764.504.588.392V0h3.43v.392l-1.05.112-.028 2.702v2.268c.924.924 1.708 1.204 2.31 1.204.812 0 1.302-.476 1.302-1.862v-1.61L6.524.504 5.376.392V0Z"/></symbol><symbol id="l" overflow="visible"><path d="M3.304-.21c.728 0 1.274.252 1.666.728l-.21.238c-.378-.224-.644-.35-1.064-.35-.616 0-.952.378-.952 1.246v5.054H4.76v.518H2.744L2.8 9.408h-.77l-.392-2.156-1.442-.126v-.42h1.4V2.898c0-.504-.014-.798-.014-1.246 0-1.26.546-1.862 1.722-1.862"/></symbol><symbol id="m" overflow="visible"><path d="M5.138-.21c1.806 0 3.108 1.498 3.108 3.892 0 2.296-1.218 3.752-2.926 3.752-.854 0-1.708-.35-2.408-1.19l-.07 1.036-.182.112-2.156-.56v-.364l1.246-.056c.028-.7.042-1.442.042-2.394V-.378l-.028-2.758-1.19-.112v-.392h3.738v.392l-1.358.112-.028 2.758v1.19C3.598.042 4.382-.21 5.138-.21M2.954 5.88c.7.7 1.302.91 1.918.91 1.274 0 2.142-1.008 2.142-3.136C7.014 1.33 6.02.462 4.802.462c-.686 0-1.246.182-1.848.77Z"/></symbol><symbol id="n" overflow="visible"><path d="M3.094-.21c1.904 0 2.884.952 2.884 2.17 0 .98-.546 1.61-1.96 2.1l-.714.252c-1.022.35-1.428.728-1.428 1.4 0 .742.546 1.26 1.61 1.26.448 0 .84-.098 1.26-.336l.28-1.33h.56l.042 1.498c-.7.42-1.302.63-2.142.63-1.68 0-2.618-.91-2.618-2.086 0-1.05.714-1.652 1.848-2.058l.728-.266c1.134-.364 1.484-.756 1.484-1.442 0-.798-.63-1.344-1.862-1.344-.588 0-1.022.098-1.414.28l-.28 1.498H.756V.35c.756-.364 1.442-.56 2.338-.56"/></symbol><symbol id="o" overflow="visible"><path d="M2.282-.21a.87.87 0 0 1 .868.854c0 .49-.378.868-.868.868-.504 0-.854-.378-.854-.868 0-.448.35-.854.854-.854m0 5.544a.87.87 0 0 1 .868.854c0 .49-.378.868-.868.868-.504 0-.854-.378-.854-.868 0-.448.35-.854.854-.854"/></symbol><symbol id="p" overflow="visible"><path d="M.112-2.436h.644l4.06 13.244H4.2Z"/></symbol><symbol id="q" overflow="visible"><path d="M.896 0h6.258v.98H1.666c.854.938 1.68 1.848 2.086 2.268C5.88 5.432 6.734 6.454 6.734 7.742c0 1.652-.966 2.66-2.842 2.66-1.428 0-2.772-.728-2.996-2.156a.58.58 0 0 1 .574-.434c.322 0 .546.182.686.728l.336 1.218c.364.154.714.21 1.064.21 1.246 0 1.988-.798 1.988-2.198 0-1.232-.616-2.212-2.1-4.004C2.758 2.954 1.82 1.848.896.756Z"/></symbol><symbol id="r" overflow="visible"><path d="M4.746-.252h1.05v2.94h1.68V3.5h-1.68v6.846h-.784l-4.536-7v-.658h4.27ZM1.078 3.5l1.96 3.038 1.708 2.674V3.5Z"/></symbol><symbol id="s" overflow="visible"><path d="M2.282-.21a.87.87 0 0 1 .868.854c0 .49-.378.868-.868.868-.504 0-.854-.378-.854-.868 0-.448.35-.854.854-.854"/></symbol><symbol id="t" overflow="visible"><path d="M3.654 2.856c-1.022 0-1.652.826-1.652 2.072 0 1.26.658 2.086 1.666 2.086.994 0 1.666-.812 1.666-2.072 0-1.246-.672-2.086-1.68-2.086m0-.42c1.68 0 2.744.994 2.744 2.492 0 .63-.182 1.176-.518 1.596l1.652-.056v.756l-.238.154-1.75-.546c-.434.378-1.092.602-1.876.602-1.694 0-2.744-.994-2.744-2.506 0-.952.42-1.708 1.162-2.128-.728-.588-1.022-1.078-1.022-1.624 0-.588.308-1.008.952-1.204C1.064-.476.574-1.022.574-1.792c0-1.078.812-1.848 2.912-1.848 2.59 0 3.976 1.288 3.976 2.59C7.462.126 6.664.812 4.97.812H2.926c-.77 0-1.078.336-1.078.812 0 .392.168.658.518 1.05a3.3 3.3 0 0 1 1.288-.238M2.296-.14c.266-.042.532-.056.896-.056h1.722c1.176 0 1.554-.532 1.554-1.162 0-1.008-1.008-1.778-2.954-1.778-1.316 0-2.058.532-2.058 1.54 0 .616.266.994.84 1.456"/></symbol><symbol id="u" overflow="visible"><path d="M2.282 9.17c.434 0 .812.322.812.784a.8.8 0 0 1-.812.798.79.79 0 0 1-.812-.798c0-.462.364-.784.812-.784M1.764 0H4.06v.392L2.982.504c-.014.784-.028 1.946-.028 2.702V5.32l.042 1.96-.168.112-2.31-.546v-.364l1.246-.056c.028-.7.056-1.442.056-2.38v-.84c0-.756-.014-1.918-.042-2.702L.602.392V0Z"/></symbol><symbol id="v" overflow="visible"><path d="M6.384-.126 8.54 0v.378L7.476.49v4.83l.056 1.834-.14.168-2.17-.238V6.72l1.134-.126-.014-4.816C5.698 1.022 4.942.574 4.144.574c-.91 0-1.4.518-1.4 2.016v2.73L2.8 7.154l-.14.168-2.198-.224v-.364l1.162-.154-.042-3.976C1.568.518 2.324-.21 3.654-.21c1.106 0 1.988.602 2.702 1.498Z"/></symbol><symbol id="w" overflow="visible"><path d="M5.18-.21c1.834 0 3.08 1.61 3.08 3.892 0 2.296-1.232 3.752-2.926 3.752-.84 0-1.708-.336-2.422-1.148v2.688l.042 2.17-.21.126-2.184-.42v-.378l1.232-.07V3.206c0-.77-.014-1.932-.028-2.716L.588.392V0l2.184-.126.14 1.05C3.584.112 4.396-.21 5.18-.21M2.94 5.88c.742.714 1.33.91 1.918.91 1.26 0 2.17-1.022 2.17-3.122C7.028 1.316 5.992.462 4.83.462c-.672 0-1.26.252-1.89.868Z"/></symbol><symbol id="x" overflow="visible"><path d="M4.158-.21c1.862 0 3.5 1.288 3.5 3.822 0 2.52-1.694 3.822-3.5 3.822-1.792 0-3.486-1.316-3.486-3.822C.672 1.092 2.31-.21 4.158-.21m0 .434c-1.386 0-2.24 1.19-2.24 3.374s.854 3.388 2.24 3.388 2.24-1.204 2.24-3.388S5.544.224 4.158.224"/></symbol><symbol id="y" overflow="visible"><path d="m.825 0 3.872-.011v.308L3.278.462 3.256 2.53v3.729L3.3 7.997l-.165.121L.77 7.513v-.33l1.584.264V2.53L2.332.462.825.308Z"/></symbol></defs></svg>